<?xml version="1.0" encoding="UTF-8" standalone="no"?>
<svg
   fill="none"
   viewBox="0 0 163.8 163.8"
   version="1.1"
   id="svg14"
   sodipodi:docname="compose_mpf.svg"
   inkscape:version="1.2.2 (1:1.2.2+202212051552+b0a8486541)"
   xmlns:inkscape="http://www.inkscape.org/namespaces/inkscape"
   xmlns:sodipodi="http://sodipodi.sourceforge.net/DTD/sodipodi-0.dtd"
   xmlns="http://www.w3.org/2000/svg"
   xmlns:svg="http://www.w3.org/2000/svg">
  <defs
     id="defs18" />
  <sodipodi:namedview
     id="namedview16"
     pagecolor="#ffffff"
     bordercolor="#000000"
     borderopacity="0.25"
     inkscape:showpageshadow="2"
     inkscape:pageopacity="0.0"
     inkscape:pagecheckerboard="0"
     inkscape:deskcolor="#d1d1d1"
     showgrid="false"
     inkscape:zoom="4.388601"
     inkscape:cx="65.85242"
     inkscape:cy="74.966942"
     inkscape:window-width="1920"
     inkscape:window-height="1019"
     inkscape:window-x="0"
     inkscape:window-y="30"
     inkscape:window-maximized="1"
     inkscape:current-layer="svg14" />
  <g
     id="g184"
     transform="translate(-6.7260015,-14.267527)">
    <path
       d="m 89.046,128.701 c -0.084,0.003 -0.168,0.009 -0.252,0.01 -1.177,0.01 -2.337,-0.29 -3.362,-0.869 L 61.803,114.495 c -0.681,-0.383 -1.249,-0.94 -1.646,-1.613 -0.397,-0.674 -0.61,-1.44 -0.618,-2.221 v -27.14 c -0.003,-0.29 0.01,-0.577 0.036,-0.86 0.072,-0.74 0.256,-1.445 0.532,-2.104 l -6.38,-3.928 -7.469,-4.184 c -0.7,1.467 -1.042,3.133 -1.025,4.86 v 40.488 c 0.011,1.166 0.329,2.309 0.922,3.313 0.593,1.005 1.44,1.835 2.456,2.408 l 35.251,19.911 c 1.53,0.864 3.26,1.311 5.016,1.296 0.063,0 0.125,-0.006 0.188,-0.007 -0.01,-5.162 -0.02,-8.838 -0.02,-8.838 z"
       fill="#4285f4"
       id="path2" />
    <path
       d="M 126.554,67.843 93.006,48.895 c -1.534,-0.867 -3.269,-1.314 -5.03,-1.297 -1.762,0.017 -3.488,0.497 -5.005,1.393 L 49.785,68.568 c -1.596,0.943 -2.768,2.291 -3.523,3.87 l -0.003,0.007 7.469,4.184 6.38,3.928 c 0.042,-0.099 0.075,-0.202 0.12,-0.298 0.064,-0.133 0.132,-0.262 0.204,-0.39 0.144,-0.254 0.305,-0.498 0.485,-0.73 0.459,-0.593 1.027,-1.094 1.674,-1.475 L 84.835,64.542 c 0.471,-0.277 0.975,-0.496 1.499,-0.651 0.742,-0.223 1.517,-0.315 2.29,-0.273 1.033,0.057 2.038,0.351 2.938,0.86 l 22.488,12.7 c 0.754,0.428 1.43,0.98 1.998,1.634 0.188,0.216 0.363,0.444 0.525,0.681 0.072,0.106 0.139,0.215 0.205,0.324 l 5.737,-3.837 7.814,-4.667 -0.011,-0.017 c -0.958,-1.413 -2.268,-2.607 -3.764,-3.453 z m -9.775,11.974 c 0.094,0.156 0.184,0.315 0.266,0.478 0.069,0.138 0.134,0.278 0.193,0.42 0.119,0.285 0.218,0.578 0.293,0.877 0.114,0.448 0.177,0.91 0.182,1.38 l -10e-4,25.825 c 0.008,0.989 -0.202,1.966 -0.614,2.865 -0.079,0.173 -0.162,0.343 -0.255,0.508 -0.581,1.028 -1.422,1.885 -2.439,2.485 L 92.16,127.779 c -0.947,0.558 -2.016,0.874 -3.113,0.921 v 7.175 c 0,0 0.01,3.677 0.02,8.839 1.674,-0.045 3.339,-0.5 4.831,-1.382 l 33.185,-19.58 c 1.517,-0.895 2.772,-2.174 3.638,-3.708 0.867,-1.534 1.314,-3.269 1.297,-5.03 l 0.001,-38.53 c -0.019,-1.86 -0.651,-3.64 -1.689,-5.171 l -7.815,4.666 z"
       fill="#4285f4"
       id="path4" />
    <g
       stroke="#4285f4"
       stroke-width="3.465"
       id="g12">
      <path
         d="m 46.262,72.438 c 0.755,-1.579 1.928,-2.927 3.524,-3.87 L 82.972,48.99 c 1.516,-0.896 3.242,-1.377 5.004,-1.394 1.761,-0.017 3.496,0.43 5.03,1.297 l 33.549,18.95 c 1.495,0.845 2.805,2.039 3.764,3.452 l 0.011,0.017 27.116,-16.195 c -1.582,-2.332 -3.744,-4.303 -6.213,-5.699 L 95.856,18.142 c -2.532,-1.43 -5.395,-2.17 -8.303,-2.141 -2.908,0.028 -5.757,0.821 -8.26,2.3 L 24.514,50.615 c -2.635,1.557 -4.57,3.782 -5.817,6.389 l 27.561,15.44 0.003,-0.006 z m 42.805,72.276 c -0.063,0.001 -0.125,0.006 -0.188,0.007 -1.757,0.015 -3.486,-0.432 -5.016,-1.296 L 48.612,123.514 c -1.016,-0.573 -1.863,-1.403 -2.456,-2.408 -0.593,-1.004 -0.91,-2.147 -0.922,-3.313 V 77.306 c -0.017,-1.728 0.324,-3.394 1.025,-4.862 L 18.698,57.004 c -1.16,2.425 -1.726,5.178 -1.697,8.035 v 66.829 c 0.039,3.917 2.16,7.521 5.576,9.444 l 58.187,32.867 c 2.525,1.425 5.38,2.163 8.279,2.139 v -0.047 c 0.066,-4.168 0.045,-20.98 0.024,-31.557 z"
         id="path6" />
      <path
         d="m 157.445,55.119 -27.116,16.194 c 1.038,1.53 1.67,3.312 1.689,5.171 l -0.001,38.53 c 0.017,1.761 -0.43,3.496 -1.297,5.03 -0.866,1.534 -2.121,2.813 -3.638,3.708 l -33.185,19.58 c -1.492,0.882 -3.157,1.337 -4.83,1.382 0.02,10.577 0.04,27.389 -0.024,31.557 l -0.001,0.047 c 2.867,-0.024 5.73,-0.783 8.285,-2.293 l 54.778,-32.32 c 2.504,-1.478 4.575,-3.589 6.005,-6.121 1.429,-2.532 2.168,-5.395 2.14,-8.303 l 0.001,-63.598 c -0.03,-3.08 -1.08,-6.032 -2.806,-8.564 z"
         id="path8" />
      <path
         d="m 89.043,176.318 c -2.9,0.024 -5.754,-0.714 -8.279,-2.14 L 22.577,141.312 c -3.416,-1.923 -5.537,-5.527 -5.575,-9.443 L 17,65.039 c -0.028,-2.857 0.537,-5.61 1.697,-8.035 1.247,-2.607 3.182,-4.832 5.817,-6.389 L 79.291,18.301 c 2.504,-1.479 5.353,-2.272 8.26,-2.3 2.909,-0.028 5.772,0.71 8.304,2.14 l 55.377,31.278 c 2.469,1.396 4.631,3.367 6.213,5.7 1.725,2.532 2.776,5.483 2.806,8.564 l -0.001,63.598 c 0.027,2.908 -0.711,5.771 -2.141,8.303 -1.429,2.532 -3.5,4.643 -6.004,6.121 l -54.778,32.319 c -2.556,1.511 -5.419,2.27 -8.285,2.294 z"
         id="path10" />
    </g>
  </g>
</svg>
