<?xml version="1.0" encoding="UTF-8" standalone="no"?>
<!-- Created with Inkscape (http://www.inkscape.org/) -->

<svg
        version="1.1"
        id="svg2"
        viewBox="0 0 500 500"
        xmlns="http://www.w3.org/2000/svg"
        xmlns:svg="http://www.w3.org/2000/svg">
  <defs
          id="defs6">
    <clipPath
            clipPathUnits="userSpaceOnUse"
            id="clipPath18">
      <path
              d="M 0,600 H 1920 V 0 H 0 Z"
              id="path16" />
    </clipPath>
  </defs>
  <g
          id="g10"
          transform="matrix(1.3333333,0,0,-1.3333333,0,800)">
        <g
                id="g20"
                transform="matrix(1.2698091,0,0,1.2698091,312.49874,552.21837)">
          <path
                  d="m 0,0 v -110.031 c 0,-54.366 -44.073,-98.44 -98.439,-98.44 -54.367,0 -98.44,44.074 -98.44,98.44 0,54.367 44.073,98.44 98.44,98.44 h 10.937 v -65.626 h -10.937 c -18.123,0 -32.814,-14.691 -32.814,-32.814 0,-18.122 14.691,-32.813 32.814,-32.813 18.122,0 32.813,14.691 32.813,32.813 V 33.924 c -10.558,2.397 -21.53,3.705 -32.813,3.705 -81.551,0 -147.66,-66.11 -147.66,-147.66 0,-81.55 66.109,-147.66 147.66,-147.66 81.55,0 147.659,66.11 147.659,147.66 C 49.22,-66.306 30.2,-27.037 0,0"
                  style="fill:#05ca79;fill-opacity:1;fill-rule:nonzero;stroke:none"
                  id="path22" />
        </g>
  </g>
</svg>
