<?xml version="1.0" encoding="UTF-8" standalone="no"?>
<svg
   viewBox="0 0 192 192"
   version="1.1"
   id="svg52"
   sodipodi:docname="firestore.svg"
   inkscape:version="1.2.2 (1:1.2.2+202212051552+b0a8486541)"
   xmlns:inkscape="http://www.inkscape.org/namespaces/inkscape"
   xmlns:sodipodi="http://sodipodi.sourceforge.net/DTD/sodipodi-0.dtd"
   xmlns="http://www.w3.org/2000/svg"
   xmlns:svg="http://www.w3.org/2000/svg">
  <sodipodi:namedview
     id="namedview54"
     pagecolor="#ffffff"
     bordercolor="#000000"
     borderopacity="0.25"
     inkscape:showpageshadow="2"
     inkscape:pageopacity="0.0"
     inkscape:pagecheckerboard="0"
     inkscape:deskcolor="#d1d1d1"
     showgrid="false"
     inkscape:zoom="4.4114583"
     inkscape:cx="69.478158"
     inkscape:cy="87.046045"
     inkscape:window-width="1920"
     inkscape:window-height="1019"
     inkscape:window-x="0"
     inkscape:window-y="30"
     inkscape:window-maximized="1"
     inkscape:current-layer="svg52" />
  <defs
     id="defs24">
    <clipPath
       id="a">
      <path
         d="M143.41 47.34a4 4 0 0 0-6.77-2.16L115.88 66 99.54 34.89a4 4 0 0 0-7.08 0l-8.93 17-22.4-41.77a4 4 0 0 0-7.48 1.28L32 150l57.9 32.46a12 12 0 0 0 11.7 0L160 150z"
         fill="none"
         id="path2" />
    </clipPath>
    <linearGradient
       x1="56.9"
       y1="102.54"
       x2="48.9"
       y2="98.36"
       gradientUnits="userSpaceOnUse"
       id="b">
      <stop
         offset="0"
         stop-color="#a52714"
         id="stop5" />
      <stop
         offset=".4"
         stop-color="#a52714"
         stop-opacity=".5"
         id="stop7" />
      <stop
         offset=".8"
         stop-color="#a52714"
         stop-opacity="0"
         id="stop9" />
    </linearGradient>
    <linearGradient
       x1="90.89"
       y1="90.91"
       x2="87.31"
       y2="87.33"
       gradientUnits="userSpaceOnUse"
       id="c">
      <stop
         offset="0"
         stop-color="#a52714"
         stop-opacity=".8"
         id="stop12" />
      <stop
         offset=".5"
         stop-color="#a52714"
         stop-opacity=".21"
         id="stop14" />
      <stop
         offset="1"
         stop-color="#a52714"
         stop-opacity="0"
         id="stop16" />
    </linearGradient>
    <linearGradient
       x1="27.188"
       y1="40.281"
       x2="160.875"
       y2="173.968"
       gradientUnits="userSpaceOnUse"
       id="d">
      <stop
         offset="0"
         stop-color="#fff"
         stop-opacity=".1"
         id="stop19" />
      <stop
         offset="1"
         stop-color="#fff"
         stop-opacity="0"
         id="stop21" />
    </linearGradient>
  </defs>
  <g
     fill="none"
     id="g50">
    <g
       clip-path="url(#a)"
       id="g44">
      <path
         d="M 32,150 53.66,11.39 a 4,4 0 0 1 7.48,-1.27 l 22.4,41.78 8.93,-17 a 4,4 0 0 1 7.08,0 L 160,150 Z"
         fill="#ffa000"
         id="path28"
         style="display:inline" />
      <path
         d="M 106.83,96.01 83.53,51.89 32,150 Z"
         fill="#f57c00"
         id="path32"
         style="display:inline" />
      <path
         d="M160 150L143.41 47.34a4 4 0 0 0-6.77-2.16L32 150l57.9 32.47a12 12 0 0 0 11.7 0z"
         fill="#ffca28"
         id="path36" />
      <path
         d="M143.41 47.34a4 4 0 0 0-6.77-2.16L115.88 66 99.54 34.89a4 4 0 0 0-7.08 0l-8.93 17-22.4-41.77a4 4 0 0 0-7.48 1.28L32 150h-.08l.07.08.57.28L115.83 67l20.78-20.8a4 4 0 0 1 6.78 2.16l16.45 101.74.16-.1zM32.19 149.81L53.66 12.39a4 4 0 0 1 7.48-1.28l22.4 41.78 8.93-17a4 4 0 0 1 7.08 0l16 30.43z"
         fill-opacity=".2"
         fill="#fff"
         id="path38" />
      <path
         d="M101.6 181.49a12 12 0 0 1-11.7 0l-57.76-32.4-.14.91 57.9 32.46a12 12 0 0 0 11.7 0L160 150l-.15-.92z"
         fill="#a52714"
         opacity=".2"
         id="path40" />
    </g>
    <circle
       cx="144"
       cy="144"
       r="40"
       fill="#757575"
       id="circle46"
       style="display:inline" />
    <path
       d="m 144,146 -18,8 v -8 l 18,-8 18,8 v 7 -1.5 2.5 z m 0,-22 18,8 v 8 l -18,-8 -18,8 v -8 z m 6.75,29 9,4 -15.75,7 v -8 z"
       fill="#ffffff"
       fill-rule="evenodd"
       id="path48"
       style="display:inline" />
  </g>
</svg>
