<?xml version="1.0" encoding="UTF-8" standalone="no"?>
<svg
   viewBox="0 0 257 257"
   fill="none"
   version="1.1"
   id="svg4"
   sodipodi:docname="mongodb.svg"
   inkscape:version="1.2.2 (1:1.2.2+202212051552+b0a8486541)"
   xmlns:inkscape="http://www.inkscape.org/namespaces/inkscape"
   xmlns:sodipodi="http://sodipodi.sourceforge.net/DTD/sodipodi-0.dtd"
   xmlns="http://www.w3.org/2000/svg"
   xmlns:svg="http://www.w3.org/2000/svg">
  <defs
     id="defs8" />
  <sodipodi:namedview
     id="namedview6"
     pagecolor="#ffffff"
     bordercolor="#000000"
     borderopacity="0.25"
     inkscape:showpageshadow="2"
     inkscape:pageopacity="0.0"
     inkscape:pagecheckerboard="0"
     inkscape:deskcolor="#d1d1d1"
     showgrid="false"
     inkscape:zoom="2.0786903"
     inkscape:cx="7.2160821"
     inkscape:cy="153.46201"
     inkscape:window-width="1920"
     inkscape:window-height="1019"
     inkscape:window-x="0"
     inkscape:window-y="30"
     inkscape:window-maximized="1"
     inkscape:current-layer="svg4" />
  <path
     d="m 150.82283,28.5501 c -10.7862,-12.7554 -20.0744,-25.71004 -21.9719,-28.400623 -0.1998,-0.1993027 -0.4995,-0.1993027 -0.6992,0 -1.8976,2.690583 -11.1857,15.645223 -21.972,28.400623 -92.581699,117.6879 14.5815,197.1109 14.5815,197.1109 l 0.8988,0.597 c 0.7989,12.258 2.7964,29.896 2.7964,29.896 h 3.9949 3.9949 c 0,0 1.9975,-17.539 2.7965,-29.896 l 0.8988,-0.697 c 0.0998,0 107.2634,-79.323 14.6813,-197.0109 z m -22.3715,195.3169 c 0,0 -4.7938,-4.086 -6.0922,-6.179 v -0.199 l 5.7926,-128.1515 c 0,-0.3986 0.5993,-0.3986 0.5993,0 l 5.7925,128.1515 v 0.199 c -1.2983,2.093 -6.0922,6.179 -6.0922,6.179 z"
     fill="#00ed64"
     id="path2" />
</svg>
