<?xml version="1.0" encoding="UTF-8" standalone="no"?>
<svg
   viewBox="0 0 146.41 146.41"
   version="1.1"
   id="svg45"
   sodipodi:docname="redis.svg"
   inkscape:version="1.2.2 (1:1.2.2+202212051552+b0a8486541)"
   xmlns:inkscape="http://www.inkscape.org/namespaces/inkscape"
   xmlns:sodipodi="http://sodipodi.sourceforge.net/DTD/sodipodi-0.dtd"
   xmlns="http://www.w3.org/2000/svg"
   xmlns:svg="http://www.w3.org/2000/svg">
  <sodipodi:namedview
     id="namedview47"
     pagecolor="#ffffff"
     bordercolor="#000000"
     borderopacity="0.25"
     inkscape:showpageshadow="2"
     inkscape:pageopacity="0.0"
     inkscape:pagecheckerboard="0"
     inkscape:deskcolor="#d1d1d1"
     showgrid="false"
     inkscape:zoom="3.6589004"
     inkscape:cx="178.60557"
     inkscape:cy="62.860416"
     inkscape:window-width="1920"
     inkscape:window-height="1019"
     inkscape:window-x="0"
     inkscape:window-y="30"
     inkscape:window-maximized="1"
     inkscape:current-layer="svg45" />
  <defs
     id="defs7">
    <style
       id="style2">.cls-1{fill:none;}.cls-2{clip-path:url(#clip-path);}.cls-3{fill:#a32422;}.cls-4{fill:#dc382c;}.cls-5{fill:#fff;}.cls-6{fill:#741113;}.cls-7{fill:#ac2724;}.cls-8{fill:#494c4d;}</style>
    <clipPath
       id="clip-path"
       transform="translate(0.01 0.01)">
      <rect
         class="cls-1"
         width="146.42"
         height="125.48"
         id="rect4"
         x="0"
         y="0" />
    </clipPath>
  </defs>
  <g
     id="g931"
     transform="translate(0,10.465)">
    <g
       class="cls-2"
       clip-path="url(#clip-path)"
       id="g21">
      <path
         class="cls-3"
         d="m 140.66,96.74 c -7.8,4.08 -48.28,20.73 -57,25.3 -8.72,4.57 -13.39,4.44 -20.21,1.18 C 56.63,119.96 13.7,102.5 5.92,98.78 2,96.94 0,95.37 0,93.9 V 79.09 c 0,0 56.08,-12.17 65.13,-15.45 9.05,-3.28 12.18,-3.36 19.87,-0.54 7.69,2.82 53.79,11.14 61.4,13.9 v 14.6 c 0,1.52 -1.75,3 -5.74,5.13 z"
         transform="translate(0.01,0.01)"
         id="path9" />
      <path
         class="cls-4"
         d="m 140.66,82 c -7.8,4.06 -48.28,20.71 -57,25.2 -8.72,4.49 -13.39,4.45 -20.21,1.2 C 56.63,105.15 13.7,87.69 5.92,84 -1.86,80.31 -2.01,77.73 5.62,74.75 13.25,71.77 56.08,55 65.13,51.7 74.18,48.4 77.31,48.33 85,51.16 c 7.69,2.83 48,18.84 55.57,21.63 7.57,2.79 7.92,5.08 0.09,9.13 z"
         transform="translate(0.01,0.01)"
         id="path11" />
      <path
         class="cls-3"
         d="m 140.66,72.62 c -7.8,4.07 -48.28,20.71 -57,25.2 C 74.94,102.31 70.31,102.27 63.49,99 56.67,95.73 13.7,78.37 5.92,74.66 2,72.8 0,71.24 0,69.76 V 55 C 0,55 56.08,42.79 65.13,39.51 74.18,36.23 77.31,36.14 85,39 c 7.69,2.86 53.79,11.1 61.4,13.88 v 14.6 c 0,1.52 -1.75,3.04 -5.74,5.14 z"
         transform="translate(0.01,0.01)"
         id="path13" />
      <path
         class="cls-4"
         d="m 140.66,57.81 c -7.8,4.08 -48.28,20.72 -57,25.21 -8.72,4.49 -13.39,4.46 -20.21,1.2 C 56.63,80.96 13.7,63.57 5.92,59.85 -1.86,56.13 -2,53.6 5.62,50.62 13.24,47.64 56.08,30.83 65.13,27.62 74.18,24.41 77.31,24.21 85,27 c 7.69,2.79 48,18.94 55.57,21.65 7.57,2.71 7.92,5.09 0.09,9.13 z"
         transform="translate(0.01,0.01)"
         id="path15" />
      <path
         class="cls-3"
         d="m 140.66,47.59 c -7.8,4.08 -48.28,20.73 -57,25.21 C 74.94,77.28 70.31,77.25 63.49,74 56.67,70.75 13.7,53.34 5.92,49.63 2,47.79 0,46.22 0,44.74 V 29.93 c 0,0 56.08,-12.17 65.13,-15.44 9.05,-3.27 12.18,-3.37 19.87,-0.55 7.69,2.82 53.77,11.14 61.38,13.92 v 14.6 c 0.02,1.54 -1.73,3.04 -5.72,5.13 z"
         transform="translate(0.01,0.01)"
         id="path17" />
      <path
         class="cls-4"
         d="m 140.66,32.8 c -7.8,4 -48.28,20.75 -57,25.2 -8.72,4.45 -13.39,4.44 -20.21,1.2 C 56.63,55.96 13.7,38.53 5.92,34.83 -1.86,31.13 -2.01,28.56 5.62,25.58 13.25,22.6 56.08,5.8 65.13,2.54 74.18,-0.72 77.31,-0.82 85,2 c 7.69,2.82 48,18.85 55.57,21.63 7.57,2.78 7.92,5.09 0.09,9.14 z"
         transform="translate(0.01,0.01)"
         id="path19" />
    </g>
    <polygon
       class="cls-5"
       points="92.38,18.55 79.71,19.87 76.86,26.71 72.28,19.08 57.63,17.76 68.57,13.82 65.28,7.76 75.51,11.78 85.17,8.61 82.55,14.87 "
       id="polygon23" />
    <polygon
       class="cls-5"
       points="52.44,41.88 86.36,36.67 76.12,51.71 "
       id="polygon25" />
    <path
       class="cls-5"
       d="m 43.29,22.35 c 10,0 18.13,3.15 18.13,7 0,3.85 -8.15,7 -18.13,7 -9.98,0 -18.14,-3.15 -18.14,-7 0,-3.85 8.13,-7 18.14,-7 z"
       id="path27" />
    <polygon
       class="cls-6"
       points="127.46,28.35 107.41,36.28 107.39,20.42 "
       id="polygon29" />
    <polygon
       class="cls-7"
       points="107.41,36.28 105.23,37.13 85.17,29.2 107.39,20.42 "
       id="polygon31" />
  </g>
</svg>
