<?xml version="1.0" encoding="UTF-8" standalone="no"?>
<svg
   viewBox="0 0 264.583 264.583"
   version="1.1"
   id="svg26"
   sodipodi:docname="android.svg"
   inkscape:version="1.2.2 (1:1.2.2+202212051552+b0a8486541)"
   xmlns:inkscape="http://www.inkscape.org/namespaces/inkscape"
   xmlns:sodipodi="http://sodipodi.sourceforge.net/DTD/sodipodi-0.dtd"
   xmlns="http://www.w3.org/2000/svg"
   xmlns:svg="http://www.w3.org/2000/svg">
  <defs
     id="defs30" />
  <sodipodi:namedview
     id="namedview28"
     pagecolor="#ffffff"
     bordercolor="#000000"
     borderopacity="0.25"
     inkscape:showpageshadow="2"
     inkscape:pageopacity="0.0"
     inkscape:pagecheckerboard="0"
     inkscape:deskcolor="#d1d1d1"
     showgrid="false"
     inkscape:zoom="0.97035102"
     inkscape:cx="256.09289"
     inkscape:cy="622.45516"
     inkscape:window-width="1920"
     inkscape:window-height="1019"
     inkscape:window-x="0"
     inkscape:window-y="30"
     inkscape:window-maximized="1"
     inkscape:current-layer="svg26" />
  <metadata
     id="metadata2" />
  <g
     transform="translate(-66.975708,-245.09937)"
     id="g24"
     style="display:inline">
    <g
       transform="matrix(1.32125,0,0,1.32125,480.53,-75.04)"
       id="g20"
       style="display:inline">
      <path
         d="m -299.036,399.581 c -6.88566,0 -13.966,5.51768 -13.966,15.1756 0,8.82926 6.22524,15.0656 13.966,15.0656 6.38958,0 9.23732,-4.28876 9.23732,-4.28876 v 1.86946 c 0,0.8836 0.83542,1.86946 1.86946,1.86946 h 4.61866 v -29.0316 h -6.48812 v 3.68394 c 0,0 -2.8716,-4.34376 -9.23732,-4.34376 z m 1.15574,5.93636 c 5.66836,0 8.64172,4.9851 8.64172,9.2371 0,4.73604 -3.5303,9.23388 -8.6297,9.2339 -4.26278,0 -8.53284,-3.45238 -8.53284,-9.2964 0,-5.27526 3.67466,-9.1746 8.52082,-9.1746 z"
         id="path4"
         style="fill:#ffffff" />
      <path
         d="m -274.293,429.272 c -0.99682,0 -1.86946,-0.71498 -1.86946,-1.86946 v -27.1621 h 6.48812 v 3.59262 c 1.47022,-2.20986 4.34254,-4.26128 8.75132,-4.26128 7.2059,0 11.043,5.74422 11.043,11.1156 v 18.5846 h -4.5087 c -1.18224,0 -1.97942,-0.9897 -1.97942,-1.97942 v -15.1756 c 0,-2.97738 -1.82422,-6.59332 -6.04314,-6.59332 -4.55234,0 -7.26302,4.30228 -7.26302,8.3528 v 15.3955 z"
         id="path6"
         style="fill:#ffffff" />
      <path
         d="m -230.966,399.581 c -6.88564,0 -13.9659,5.51768 -13.9659,15.1756 0,8.82926 6.22524,15.0656 13.9659,15.0656 6.38958,0 9.23734,-4.28876 9.23734,-4.28876 v 1.86946 c 0,0.8836 0.83542,1.86946 1.86946,1.86946 h 4.61866 v -43.5474 h -6.48812 v 18.1997 c 0,0 -2.87162,-4.34374 -9.23734,-4.34374 z m 1.15576,5.93636 c 5.66836,0 8.64172,4.9851 8.64172,9.2371 0,4.73604 -3.53032,9.23388 -8.6297,9.2339 -4.26278,0 -8.53284,-3.45238 -8.53284,-9.2964 0,-5.27528 3.67464,-9.1746 8.52082,-9.1746 z"
         id="path8"
         style="fill:#ffffff" />
      <path
         d="m -206.223,429.272 c -0.99682,0 -1.86946,-0.71498 -1.86946,-1.86946 v -27.1621 h 6.48812 v 4.8386 c 1.11676,-2.7106 3.52662,-5.1685 7.80774,-5.1685 1.19346,0 2.30934,0.21994 2.30934,0.21994 v 6.70804 c 0,0 -1.39338,-0.54984 -3.07912,-0.54984 -4.55234,0 -7.03796,4.30228 -7.03796,8.35282 v 14.6305 z"
         id="path10"
         style="fill:#ffffff" />
      <path
         d="m -152.119,429.272 c -0.99682,0 -1.86946,-0.71498 -1.86946,-1.86946 v -27.1621 h 6.48812 v 29.0316 z"
         id="path12"
         style="fill:#ffffff" />
      <path
         d="m -128.476,399.581 c -6.88566,0 -13.966,5.51768 -13.966,15.1756 0,8.82926 6.22524,15.0656 13.966,15.0656 6.38956,0 9.23731,-4.28876 9.23731,-4.28876 v 1.86946 c 0,0.8836 0.83542,1.86946 1.86946,1.86946 h 4.61866 v -43.5474 h -6.48812 v 18.1997 c 0,0 -2.87159,-4.34374 -9.23731,-4.34374 z m 1.15574,5.93636 c 5.66836,0 8.64171,4.9851 8.64171,9.2371 0,4.73604 -3.53029,9.23388 -8.62969,9.2339 -4.26278,0 -8.53284,-3.45238 -8.53284,-9.2964 0,-5.27528 3.67466,-9.1746 8.52082,-9.1746 z"
         id="path14"
         style="fill:#ffffff" />
      <circle
         cx="-150.78999"
         cy="389.69"
         r="4.29"
         id="circle16"
         style="fill:#ffffff" />
      <path
         d="m -174.376,399.571 c -7.21114,0 -15.1337,5.38276 -15.1337,15.1337 0,8.88566 6.74818,15.1183 15.118,15.1183 10.315,0 15.3517,-8.29218 15.3517,-15.062 0,-8.30724 -6.48568,-15.19 -15.336,-15.19 z m 0.0236,6.059 c 4.9867,0 8.70638,4.01914 8.70638,9.09298 0,5.16184 -3.94862,9.14498 -8.69156,9.14498 -4.40284,0 -8.68276,-3.583 -8.68276,-9.0582 0,-5.56646 4.07064,-9.17976 8.66794,-9.17976 z"
         id="path18"
         style="fill:#ffffff" />
    </g>
    <g
       inkscape:groupmode="layer"
       id="layer1"
       inkscape:label="Layer 1"
       transform="translate(66.97,261.92)">
      <ellipse
         style="fill:#ffffff;fill-opacity:0.916471;stroke:#ffffff;stroke-width:0.264583"
         id="path369"
         cx="70.405807"
         cy="100.72173"
         rx="16.646223"
         ry="16.812077" />
      <circle
         style="display:inline;fill:#ffffff;fill-opacity:0.916471;stroke:#ffffff;stroke-width:0.250299"
         id="path369-3"
         cx="192.60403"
         cy="99.889992"
         r="15.825766" />
    </g>
    <path
       d="m 263.837,306.59 21.9331,-37.9944 c 1.2377,-2.12998 0.48933,-4.83565 -1.61189,-6.07335 -2.1012,-1.23768 -4.83565,-0.5181 -6.04456,1.61189 l -22.221,38.4837 c -16.9536,-7.74281 -36.0371,-12.0604 -56.5599,-12.0604 -20.5227,0 -39.6063,4.31754 -56.5599,12.0604 l -22.221,-38.4837 c -1.2377,-2.12999 -3.94336,-2.84957 -6.07335,-1.61189 -2.13,1.2377 -2.84959,3.94337 -1.61189,6.07335 l 21.9331,37.9944 c -37.8217,20.494 -63.4392,58.7762 -67.6703,103.592 h 264.407 c -4.2312,-44.8161 -29.8487,-83.0984 -67.6991,-103.592 z m -125.209,66.4614 c -6.13092,0 -11.0817,-4.97957 -11.0817,-11.0817 0,-6.13093 4.97957,-11.0817 11.0817,-11.0817 6.13092,0 11.0817,4.97956 11.0817,11.0817 0.0289,6.10212 -4.95079,11.0817 -11.0817,11.0817 z m 121.381,0 c -6.13091,0 -11.0817,-4.97957 -11.0817,-11.0817 0,-6.13093 4.97958,-11.0817 11.0817,-11.0817 6.13093,0 11.0817,4.97956 11.0817,11.0817 0.0288,6.10212 -4.95077,11.0817 -11.0817,11.0817 z"
       fill="#32de84"
       stroke-width="0.288"
       id="path22" />
  </g>
</svg>
