<svg id="Layer_1" data-name="Layer 1" xmlns="http://www.w3.org/2000/svg" viewBox="0 0 614.2 614.2">
    <defs>
        <style>.cls-1{fill:#05cb78;}</style>
    </defs>
    <title>New logo Deliverect_Round</title>
    <path class="cls-1"
          d="M516.88,84.34v213c0,5.4-1.08,19.46-1.08,24.87v2.16C508.23,445.48,425,520.09,297.37,520.09c-59.47,0-112.46-21.62-149.23-60.55S93,368.71,95.14,312.48c4.34-101.62,91.93-176.2,202.23-176.2h0c34.6,0,42.17,3.24,64.88,9.73V249.79l-5.41-2.16C339.54,241.14,332,239,308.18,239c-34.6-1.08-66,10.82-83.26,31.36-13,16.22-21.63,37.85-20.55,57.31,0,13,3.25,38.93,20.55,58.4,19.46,21.62,50.82,33.52,83.26,31.35,73.53-3.24,93-62.71,98.4-98.4,2.17-17.3,3.25-51.9,3.25-56.23V18.38A298.14,298.14,0,0,0,307.1,0C137.33,0,0,137.33,0,307.1S137.33,614.2,307.1,614.2,614.2,476.87,614.2,307.1C613.12,218.43,576.35,139.49,516.88,84.34Z"/>
</svg>