<?xml version="1.0" encoding="UTF-8" standalone="no"?>
<!-- Created with Inkscape (http://www.inkscape.org/) -->

<svg
   viewBox="0 0 348.19199 348.19199"
   version="1.1"
   id="svg5"
   xml:space="preserve"
   sodipodi:docname="docker.svg"
   inkscape:version="1.2.2 (1:1.2.2+202212051552+b0a8486541)"
   xmlns:inkscape="http://www.inkscape.org/namespaces/inkscape"
   xmlns:sodipodi="http://sodipodi.sourceforge.net/DTD/sodipodi-0.dtd"
   xmlns="http://www.w3.org/2000/svg"
   xmlns:svg="http://www.w3.org/2000/svg"><sodipodi:namedview
     id="namedview6"
     pagecolor="#ffffff"
     bordercolor="#000000"
     borderopacity="0.25"
     inkscape:showpageshadow="2"
     inkscape:pageopacity="0.0"
     inkscape:pagecheckerboard="0"
     inkscape:deskcolor="#d1d1d1"
     inkscape:document-units="mm"
     showgrid="false"
     inkscape:zoom="0.75222024"
     inkscape:cx="499.18891"
     inkscape:cy="470.60685"
     inkscape:window-width="1920"
     inkscape:window-height="1019"
     inkscape:window-x="0"
     inkscape:window-y="30"
     inkscape:window-maximized="1"
     inkscape:current-layer="svg5" /><defs
     id="defs2" /><g
     id="layer1"
     transform="translate(76.87536,-16.583563)"><path
       style="fill:#2497ed;fill-opacity:1;stroke-width:0.264583"
       d="m 187.85427,339.42762 c -4.64021,-0.52179 -8.74195,-1.98864 -12.50487,-4.47196 -11.03014,-7.27932 -15.75387,-19.62939 -12.50367,-32.69054 1.93822,-7.78888 9.10287,-15.96979 16.78776,-19.16902 7.35154,-3.06046 16.22654,-3.04178 23.2222,0.0489 8.84402,3.90724 15.31438,11.75017 17.16421,20.80528 0.66744,3.26712 0.74097,7.53895 0.14907,8.66049 -0.60987,1.15551 -2.12016,2.40847 -3.29719,2.73534 -0.65899,0.18301 -8.23761,0.27802 -22.25005,0.279 l -21.25064,0.003 0.18463,0.59531 c 1.27787,4.12015 5.08881,8.46818 9.18211,10.47618 3.12472,1.53284 5.07794,1.98953 8.52829,1.99403 4.74586,0.006 8.27387,-1.2618 11.96803,-4.30133 1.40341,-1.15469 2.25269,-1.64738 3.18418,-1.84716 2.22512,-0.4772 4.12301,0.26601 5.46706,2.14093 0.90954,1.26873 1.19036,3.2853 0.67498,4.8469 -0.87098,2.63914 -6.5877,6.80201 -11.80682,8.59763 -3.39595,1.1684 -9.02105,1.73467 -12.89928,1.29855 z m 20.76691,-35.97053 c -2.01639,-5.30674 -6.47735,-9.29348 -12.47167,-11.1459 -2.56453,-0.79252 -6.64011,-0.85205 -9.43882,-0.13788 -5.17513,1.32058 -9.96473,5.09511 -12.10186,9.53708 -0.49686,1.0327 -0.97861,2.14553 -1.07056,2.47296 l -0.16718,0.59531 h 17.87611 17.87613 z M -52.944306,339.0671 c -6.06766,-1.16742 -11.11673,-3.96939 -15.63685,-8.67765 -6.69488,-6.97357 -9.21187,-15.19756 -7.76793,-25.38091 1.4197,-10.01235 9.64915,-19.55079 19.71526,-22.85121 8.61134,-2.82344 18.31758,-1.4496 25.88341,3.66358 1.00154,0.67687 1.86474,1.23066 1.91823,1.23066 0.0535,0 0.0979,-6.10195 0.0987,-13.55989 8e-4,-8.09711 0.1065,-13.93297 0.26217,-14.48594 0.29981,-1.06501 1.5203,-2.46019 2.67411,-3.05684 1.28031,-0.66208 3.74083,-0.55058 5.07256,0.22987 0.61515,0.3605 1.33799,0.89804 1.60631,1.19453 1.22006,1.34815 1.20739,1.05554 1.21968,28.16735 0.0122,27.02634 -0.0586,28.97224 -1.19872,32.90646 -2.8252,9.74916 -10.92658,17.57133 -20.95282,20.23068 -2.65525,0.70427 -10.09031,0.92874 -12.89414,0.38931 z m 11.31633,-11.28879 c 2.82162,-0.942 4.94204,-2.30095 7.36395,-4.71946 1.90311,-1.90042 2.47666,-2.68483 3.49987,-4.78644 1.5664,-3.21731 2.16477,-6.08595 1.93747,-9.28825 -0.48664,-6.85574 -4.59913,-12.7969 -10.88845,-15.73009 -10.32597,-4.8158 -22.79722,1.16052 -25.65457,12.29386 -2.39082,9.31553 2.85267,18.96179 12.04485,22.15851 3.41712,1.18838 8.26334,1.21815 11.69688,0.0719 z m 53.46271,11.28368 c -11.46256042,-2.16871 -21.1056704,-11.64672 -23.26322,-22.86495 -1.51641,-7.88455 -0.0795,-15.70049 4.0300096,-21.92158 5.99961,-9.08225 15.88732,-14.12882 26.4198704,-13.48438 7.70827,0.47164 13.82132,3.24202 19.32657,8.75863 6.15773,6.17043 8.98336,14.16041 8.2757,23.40103 -0.28318,3.69776 -1.04655,6.46763 -2.74272,9.95188 -1.70659,3.50562 -3.34736,5.72286 -6.31078,8.52799 -3.84004,3.6349 -7.78829,5.87942 -12.56322,7.14198 -2.12485,0.56182 -3.2657,0.68739 -6.91062,0.76052 -2.91659,0.0585 -4.99493,-0.0315 -6.26159,-0.27112 z m 11.58789,-11.37325 c 10.55781,-3.67165 15.54779,-15.88976 10.54603,-25.82226 -3.06668,-6.08983 -8.89818,-9.88108 -15.74004,-10.23313 -3.46283,-0.17819 -5.86467,0.32985 -9.1281204,1.93079 -2.10666,1.03346 -2.88426,1.60629 -4.80365,3.53869 -1.90949,1.92244 -2.48974,2.71889 -3.49136002,4.79229 -1.57026,3.2505 -2.15352998,6.09143 -1.93466998,9.42322 0.50502998,7.68842 5.753,14.32049 13.1400904,16.60562 3.2535,1.00645 8.13032,0.90593 11.41172,-0.23522 z m 54.33725,11.58476 c -0.29105,-0.0573 -1.18401,-0.23003 -1.98438,-0.38378 -5.26745,-1.0119 -10.41738,-3.84466 -14.47527,-7.96218 -4.54007,-4.60682 -6.96116,-8.98761 -8.16376,-14.7718 -0.55773,-2.68253 -0.63736,-8.77477 -0.1487,-11.37708 1.67585,-8.92475 7.689,-16.89891 15.83374,-20.99743 7.98774,-4.01951 17.87829,-4.09141 25.88004,-0.18812 2.58643,1.26168 5.898056,3.57414 7.160176,4.99985 1.61957,1.8295 1.50651,5.25974 -0.23583,7.15501 -0.8428,0.91677 -2.518746,1.61073 -3.889976,1.61073 -1.42836,0 -2.80598,-0.60552 -4.7625,-2.09332 -3.48778,-2.65221 -7.59364,-3.89353 -12.02007,-3.63401 -4.843,0.28393 -8.53152,1.95306 -12.08681,5.46948 -1.90887,1.88801 -2.47904,2.66184 -3.51267,4.76739 -4.61895,9.40893 -0.92139,20.24256 8.52877,24.98881 4.65018,2.33553 11.57422,2.35059 16.13767,0.0351 0.67832,-0.34417 2.00722,-1.19743 2.95311,-1.89614 0.94588,-0.69871 2.13651,-1.42057 2.64583,-1.60414 2.21843,-0.7996 4.673026,-0.0717 6.190456,1.83565 1.09949,1.38203 1.28899,3.82598 0.43366,5.59287 -1.50391,3.10666 -8.829866,7.19177 -14.748036,8.22381 -2.04951,0.3574 -8.33324,0.50538 -9.73545,0.22926 z m 34.224456,-0.59608 c -0.66056,-0.41892 -1.48754,-1.22259 -1.83774,-1.78594 l -0.63672,-1.02428 -0.0697,-37.79395 c -0.0478,-25.90117 0.0182,-38.12032 0.20957,-38.83108 0.1536,-0.57042 0.63217,-1.43906 1.0635,-1.93031 2.72287,-3.10118 8.1575,-1.98288 9.23603,1.90053 0.17729,0.63836 0.27379,8.31239 0.27475,21.84822 0.001,17.39124 0.0608,20.84146 0.35813,20.72738 0.32611,-0.12514 5.11094,-3.19689 13.66626,-8.77343 1.81901,-1.18567 4.94822,-3.22075 6.9538,-4.5224 2.00557,-1.30164 4.98214,-3.24886 6.61458,-4.32713 3.95516,-2.61251 5.6098,-3.46346 6.73457,-3.46346 3.23217,0 5.62622,2.40911 5.62622,5.6616 0,1.0409 -0.57715,2.65635 -1.19159,3.33531 -0.20772,0.22952 -5.43618,3.68669 -11.61879,7.6826 -6.18262,3.99591 -11.24688,7.32798 -11.25392,7.40461 -0.007,0.0766 5.17878,5.97022 11.52402,13.09688 6.34525,7.12666 11.75998,13.4338 12.03273,14.01588 0.88854,1.89619 0.50893,4.40494 -0.89414,5.90913 -1.54284,1.65401 -4.60071,2.16423 -6.49979,1.08452 -0.57254,-0.32551 -5.88984,-6.10449 -13.1329,-14.27318 -6.69395,-7.54941 -12.29424,-13.70288 -12.44507,-13.67436 -0.15083,0.0285 -1.66297,0.94478 -3.3603,2.03618 l -3.08607,1.98438 -0.0793,10.45104 -0.0793,10.45104 -0.63672,1.02428 c -0.3502,0.56335 -1.17718,1.36702 -1.83774,1.78594 -0.98545,0.62495 -1.49109,0.76166 -2.8172,0.76166 -1.32611,0 -1.83176,-0.13671 -2.81721,-0.76166 z m 117.91096,0.32202 c -1.16419,-0.61375 -1.97038,-1.41703 -2.54317,-2.53396 -0.49115,-0.9578 -0.50507,-1.80372 -0.43725,-26.61005 l 0.07,-25.6208 0.74465,-1.12513 c 0.82058,-1.23989 2.8907,-2.40192 4.28244,-2.40386 1.3439,-0.002 2.74934,0.516 3.72491,1.37256 1.20719,1.05992 1.64983,1.9481 1.85936,3.73091 l 0.17031,1.44895 1.35604,-1.03206 c 1.80181,-1.37134 5.38806,-3.21069 7.91168,-4.05784 6.65882,-2.2353 16.1739,-1.80141 21.02956,0.95897 1.64314,0.93409 2.54558,2.03626 2.96855,3.62552 0.82306,3.09259 -1.83074,6.62266 -4.99409,6.64311 -0.49427,0.003 -2.04209,-0.3752 -3.43959,-0.84089 -2.37037,-0.78988 -2.78947,-0.84699 -6.24506,-0.8509 -3.37749,-0.004 -3.89084,0.0609 -5.82084,0.73387 -6.00459,2.09379 -9.89833,5.99215 -12.06762,12.08194 -0.60235,1.69093 -0.61254,1.91276 -0.75377,16.41979 l -0.14319,14.7057 -0.79375,1.28103 c -1.0432,1.68365 -2.57657,2.51672 -4.60568,2.50219 -0.81812,-0.006 -1.83465,-0.19769 -2.27349,-0.42905 z m 19.31458,-0.31723 c -1.49352,-0.92252 -1.85208,-1.54562 -1.85208,-3.21834 0,-1.27579 0.1129,-1.65926 0.66146,-2.24631 1.03262,-1.10514 2.05512,-1.52715 3.34732,-1.3815 2.07971,0.2344 3.34254,1.6419 3.31423,3.69385 -0.0384,2.77865 -3.16204,4.57851 -5.47093,3.1523 z m 3.25708,-0.57282 c 0.4817,-0.29369 1.05399,-0.96044 1.27177,-1.48164 1.0369,-2.48166 -1.45346,-5.06773 -3.90308,-4.05305 -2.30137,0.95327 -2.39747,4.70397 -0.14563,5.68336 1.16155,0.50519 1.75673,0.47331 2.77694,-0.14867 z m -2.8602,-2.63906 v -1.85209 h 1.13771 c 0.62574,0 1.28058,0.14288 1.45521,0.3175 0.45331,0.45331 0.39211,1.18475 -0.11539,1.37951 -0.40079,0.15381 -0.40079,0.20156 0,0.64445 0.47115,0.52062 0.5841,1.36271 0.18275,1.36271 -0.13758,0 -0.40637,-0.32597 -0.59732,-0.72438 -0.19095,-0.39838 -0.55465,-0.7643 -0.8082,-0.81314 -0.35756,-0.0688 -0.46101,0.0937 -0.46101,0.72437 0,0.54642 -0.13018,0.81315 -0.39688,0.81315 -0.31498,0 -0.39687,-0.38217 -0.39687,-1.85208 z m 1.69815,-0.16061 c 0.70456,-0.27035 0.51811,-1.16231 -0.24294,-1.16231 -0.52917,0 -0.66146,0.13229 -0.66146,0.66146 0,0.68029 0.17878,0.7793 0.9044,0.50085 z M 63.736954,231.98489 c -18.03273,-0.83416 -34.29498,-4.38753 -45.50834,-9.94374 C 6.2959636,216.12852 -2.6358064,206.74266 -9.4149464,192.9922 -14.601466,182.47212 -17.887536,170.96939 -19.581206,157.40574 c -1.03555,-8.29317 -1.26819,-17.77059 -0.48993,-19.95845 0.62498,-1.75693 2.61164,-3.88818 4.36162,-4.67908 l 1.39438,-0.63018 90.48751,-0.1433 90.487496,-0.14331 2.91042,-0.57676 c 5.01308,-0.99344 10.25018,-2.61815 11.95618,-3.70918 0.2235,-0.14293 -0.17701,-1.1949 -1.38398,-3.63513 -2.86324,-5.78885 -4.00511,-11.14785 -3.74784,-17.5892 0.27545,-6.896447 1.85583,-12.829987 5.23038,-19.637477 1.1102,-2.23962 4.53101,-7.7149 5.00188,-8.00591 0.0915,-0.0565 1.29178,0.55805 2.66735,1.36574 6.91555,4.06058 13.01658,10.54607 16.38181,17.41411 1.64418,3.355547 3.03766,7.362277 3.3319,9.580257 0.0972,0.7327 0.26374,1.47301 0.3701,1.64512 0.14756,0.23872 1.09723,0.20832 4.00532,-0.12824 4.60033,-0.53241 12.30749,-0.40633 15.98273,0.26146 6.05748,1.10064 10.62845,3.03647 14.20032,6.0139 l 1.23571,1.03008 -0.7939,2.1758 c -1.78277,4.88589 -4.5806,9.071 -8.65839,12.95155 -7.18555,6.83798 -16.93214,10.50292 -27.97262,10.51835 l -3.46806,0.005 -1.00134,2.4474 c -6.27539,15.33744 -13.36677,28.36793 -20.91465,38.43073 -7.04251,9.38905 -16.41222,18.62425 -25.55105,25.18423 -17.45307,12.52807 -39.23392,20.55883 -63.336436,23.35263 -9.03637,1.04743 -20.45551,1.45148 -29.36875,1.03917 z M 2.5320236,126.10171 c -0.57204,-0.60892 -0.57528,-0.6758 -0.57528,-11.86525 0,-11.10394 0.007,-11.25955 0.55694,-11.7569 0.53123,-0.48076 1.13711,-0.50403 13.1202504,-0.50403 h 12.56331 l 0.50579,0.62462 c 0.48019,0.59301 0.50579,1.19134 0.50579,11.8209 v 11.19628 l -0.69714,0.54837 c -0.68267,0.53699 -0.95356,0.54837 -13.05075,0.54837 H 3.1073136 Z m 32.4010304,0.064 -0.69714,-0.54837 v -11.19628 c 0,-10.62956 0.0256,-11.22789 0.50579,-11.8209 l 0.50578,-0.62462 h 12.61447 12.61446 l 0.50579,0.62462 c 0.48015,0.59296 0.50579,1.19092 0.50579,11.79399 v 11.16936 l -0.61236,0.57528 c -0.61063,0.57366 -0.64738,0.57529 -12.92891,0.57529 -12.05968,0 -12.33107,-0.0114 -13.01367,-0.54837 z m 32.80833,0 -0.69714,-0.54837 v -11.19628 c 0,-10.62956 0.0256,-11.22789 0.50579,-11.8209 l 0.50579,-0.62462 h 12.61446 12.61447 l 0.50578,0.62462 c 0.48015,0.59296 0.50579,1.19092 0.50579,11.79399 v 11.16936 l -0.61236,0.57528 c -0.61062,0.57366 -0.64737,0.57529 -12.9289,0.57529 -12.05968,0 -12.33108,-0.0114 -13.01368,-0.54837 z m 32.338946,0.0428 -0.624626,-0.50559 -0.0748,-10.9281 c -0.0521,-7.61446 0.0149,-11.14473 0.22114,-11.64254 0.16276,-0.39294 0.616596,-0.84727 1.008516,-1.0096 0.49807,-0.20631 4.35212,-0.27288 12.80244,-0.22114 l 12.08986,0.074 0.60246,0.60266 0.60247,0.60266 v 11.26082 11.26082 l -0.62463,0.50579 c -0.5951,0.48189 -1.20952,0.50579 -13.00142,0.50579 -11.79015,0 -12.4064,-0.024 -13.00141,-0.5056 z m 32.74856,-0.0428 -0.69714,-0.54837 v -11.19628 c 0,-10.62956 0.0256,-11.22789 0.50579,-11.8209 l 0.50578,-0.62462 h 12.61447 12.61446 l 0.50579,0.62462 c 0.48015,0.59296 0.50579,1.19092 0.50579,11.79399 v 11.16936 l -0.61237,0.57528 c -0.61062,0.57366 -0.64737,0.57529 -12.9289,0.57529 -12.05968,0 -12.33107,-0.0114 -13.01367,-0.54837 z M 35.760154,96.611843 c -1.52428,-0.19951 -1.52424,-0.19924 -1.52424,-12.37614 V 73.095901 l 0.61236,-0.575289 c 0.6108,-0.573813 0.64422,-0.575286 13.04699,-0.575286 12.14809,0 12.44796,0.01243 13.01367,0.539475 0.57808,0.538562 0.57906,0.558387 0.57906,11.744642 0,10.63796 -0.0256,11.23679 -0.50575,11.8298 l -0.50574,0.62462 -11.99582,0.0114 c -6.5977,0.006 -12.32194,-0.0313 -12.72053,-0.0834 z m 32.80833,0 c -1.52427,-0.19951 -1.52424,-0.19924 -1.52424,-12.37614 V 73.095901 l 0.61237,-0.575289 c 0.6108,-0.573818 0.64411,-0.575286 13.05075,-0.575286 h 12.43839 l 0.57529,0.612365 c 0.57184,0.608697 0.57528,0.679021 0.57528,11.744642 0,10.5662 -0.0257,11.16405 -0.50574,11.75691 l -0.50575,0.62462 -11.99581,0.0114 c -6.5977,0.006 -12.32194,-0.0313 -12.72054,-0.0834 z m 32.413846,0.002 c -0.32452,-0.0536 -0.83424,-0.40783 -1.132706,-0.78727 -0.5304,-0.67429 -0.54099,-0.94072 -0.46829,-11.77981 l 0.0744,-11.089917 0.624626,-0.505606 c 0.59502,-0.481542 1.21119,-0.505502 13.00141,-0.505502 11.79023,0 12.4064,0.02397 13.00142,0.505603 l 0.62463,0.505605 0.0744,11.111677 0.0744,11.11169 -0.64679,0.75198 -0.64679,0.75199 -11.99535,0.0135 c -6.59744,0.007 -12.26086,-0.0303 -12.58538,-0.0839 z m -0.902,-30.465369 -0.624626,-0.505596 -0.0748,-10.928096 c -0.0525,-7.663293 0.0143,-11.143189 0.22342,-11.648065 0.1749,-0.422227 0.632476,-0.836487 1.106476,-1.001724 0.52513,-0.183064 4.95971,-0.281756 12.66026,-0.281756 h 11.85201 l 0.74236,0.63855 0.74236,0.63855 v 11.291077 11.291077 l -0.62463,0.50579 c -0.5951,0.481887 -1.20952,0.50579 -13.00142,0.50579 -11.79015,0 -12.4064,-0.02396 -13.00141,-0.505597 z"
       id="path179" /></g></svg>
