<?xml version="1.0" encoding="UTF-8" standalone="no"?>
<svg
   viewBox="0 0 500 500"
   version="1.1"
   id="svg253"
   sodipodi:docname="fiber.svg"
   inkscape:version="1.2.2 (1:1.2.2+202212051552+b0a8486541)"
   xmlns:inkscape="http://www.inkscape.org/namespaces/inkscape"
   xmlns:sodipodi="http://sodipodi.sourceforge.net/DTD/sodipodi-0.dtd"
   xmlns="http://www.w3.org/2000/svg"
   xmlns:svg="http://www.w3.org/2000/svg">
  <defs
     id="defs257" />
  <sodipodi:namedview
     id="namedview255"
     pagecolor="#ffffff"
     bordercolor="#000000"
     borderopacity="0.25"
     inkscape:showpageshadow="2"
     inkscape:pageopacity="0.0"
     inkscape:pagecheckerboard="0"
     inkscape:deskcolor="#d1d1d1"
     showgrid="false"
     inkscape:zoom="1.4227871"
     inkscape:cx="263.5672"
     inkscape:cy="234.04767"
     inkscape:window-width="1920"
     inkscape:window-height="1019"
     inkscape:window-x="0"
     inkscape:window-y="30"
     inkscape:window-maximized="1"
     inkscape:current-layer="g493" />
  <g
     id="g493"
     transform="matrix(0.67103285,0,0,0.67103285,-16.024263,148.36536)">
    <g
       fill="#333333"
       id="g245"
       style="fill:#ffffff">
      <path
         d="m 239.25,69.58 h 117.84 l -5.74,33.89 h -76.11 l -5.73,35.4 h 68.61 l -5.73,34 h -68.61 l -11.47,69.37 h -41.72 z"
         id="path235"
         style="fill:#ffffff" />
      <path
         d="m 359,112.74 h 41.22 l -21.54,129.47 h -41.22 z m 5,-34.89 c 1.7,-10.85 12.41,-19.64 24,-19.64 11.59,0 19.85,8.79 18.41,19.64 -1.44,10.85 -12.22,19.72 -23.85,19.72 -11.63,0 -20.14,-8.94 -18.56,-19.72 z"
         id="path237"
         style="fill:#ffffff" />
      <path
         d="m 421.61,69.58 h 41.21 l -10.7,65.33 H 453 c 6.74,-11.89 20.15,-23.85 40.63,-23.85 27.06,0 48,20.82 40.37,66.5 -7.25,44.08 -34.22,66.5 -62.88,66.5 -19.55,0 -29.33,-10.87 -32.36,-22.84 h -1.61 l -3.37,21 H 393 Z M 462.32,212 c 15.17,0 26,-13.57 29.33,-34.47 3.33,-20.9 -2.7,-34.23 -18,-34.23 -15.09,0 -26.13,13.07 -29.5,34.23 -3.41,20.93 3.08,34.47 18.17,34.47 z"
         id="path239"
         style="fill:#ffffff" />
      <path
         d="m 538.79,178 c 6.65,-40.12 36.32,-66.92 75.35,-66.92 36.75,0 58.67,23.51 51.59,66.08 l -1.61,10.28 H 577.9 l -0.26,1.52 c -2.61,16.44 5.14,26 21.24,26 10.71,0 20,-4.55 24.7,-13.23 l 37.59,1.09 c -9.18,25.46 -33.88,41.89 -68,41.89 -40.65,-0.06 -61.38,-25.34 -54.38,-66.71 z m 90.86,-14.5 c 2.11,-13.23 -5.82,-22.67 -19.3,-22.67 -13.32,0 -25.12,9.86 -28.07,22.67 z"
         id="path241"
         style="fill:#ffffff" />
      <path
         d="m 685.8,112.74 h 40 l -4,23.6 h 1.35 C 730.82,119.23 743.54,111 757.7,111 a 49,49 0 0 1 11.3,1.4 l -6.07,35.91 c -3.79,-1.43 -10.79,-2.19 -15.93,-2.19 -14.58,0 -27.23,10.37 -29.92,25.79 l -11.64,70.3 h -41.21 z"
         id="path243"
         style="fill:#ffffff" />
    </g>
    <path
       d="M 213.77,115.41 H 79.26 L 68.5,130.68 211.28,130.6 Z"
       fill="#00acd7"
       id="path247" />
    <path
       d="M 209.02,147.06 H 34.95 l -11.07,15.21 182.65,-0.13 z"
       fill="#00acd7"
       id="path249" />
    <path
       d="M 204.27,178.7 H 129.9 l -10,15.27 81.88,-0.06 z"
       fill="#00acd7"
       id="path251" />
  </g>
</svg>
