<?xml version="1.0" encoding="UTF-8" standalone="no"?>
<svg
   width="256px"
   height="256px"
   viewBox="0 0 256 256"
   version="1.1"
   preserveAspectRatio="xMidYMid"
   id="svg14"
   sodipodi:docname="github_actions.svg"
   xml:space="preserve"
   inkscape:version="1.2.2 (1:1.2.2+202212051552+b0a8486541)"
   xmlns:inkscape="http://www.inkscape.org/namespaces/inkscape"
   xmlns:sodipodi="http://sodipodi.sourceforge.net/DTD/sodipodi-0.dtd"
   xmlns="http://www.w3.org/2000/svg"
   xmlns:svg="http://www.w3.org/2000/svg"><defs
     id="defs18" /><sodipodi:namedview
     id="namedview16"
     pagecolor="#ffffff"
     bordercolor="#000000"
     borderopacity="0.25"
     inkscape:showpageshadow="2"
     inkscape:pageopacity="0.0"
     inkscape:pagecheckerboard="0"
     inkscape:deskcolor="#d1d1d1"
     showgrid="false"
     inkscape:zoom="1.2679324"
     inkscape:cx="99.37438"
     inkscape:cy="290.23628"
     inkscape:window-width="1920"
     inkscape:window-height="1019"
     inkscape:window-x="0"
     inkscape:window-y="30"
     inkscape:window-maximized="1"
     inkscape:current-layer="svg14" /><title
     id="title2">GitHub Actions</title><g
     id="g2302"><path
       d="m 53.603968,0 c 29.604052,0 53.603972,23.992099 53.603972,53.590599 0,29.090076 -23.188988,52.749641 -52.092981,53.552121 0,2.46151 0.108707,7.11165 1.501494,9.91943 1.932491,3.89425 13.524111,11.14488 24.891817,11.14488 v 0 h 4.083981 c 2.566576,-18.27118 18.256499,-32.332075 37.239639,-32.332075 18.90617,0 34.55028,13.946385 37.21123,32.109475 v 0 h 21.12913 c 2.66187,-18.16309 18.30507,-32.109475 37.21123,-32.109475 20.77452,0 37.61624,16.836605 37.61624,37.606855 0,20.76934 -16.84172,37.60595 -37.61624,37.60595 -18.90616,0 -34.55027,-13.9473 -37.21123,-32.11039 v 0 h -21.12821 c -2.66096,18.16309 -18.30507,32.11039 -37.21215,32.11039 -18.87043,0 -34.493466,-13.89325 -37.198405,-32.00687 v 0 l -4.515562,0.13466 c -7.434916,-0.0559 -15.289451,-2.04126 -21.598225,-6.32759 -1.719909,-1.16892 -3.414211,-2.39708 -5.181768,-3.5605 v 0 l -5.13e-4,2.44182 c -0.0096,0.78944 -0.152035,12.6569 -0.16348,25.83319 l -3.84e-4,2.78992 c 0.0053,8.64104 0.07366,17.5447 0.277083,24.03897 0.446242,14.24685 12.034778,25.74547 24.822761,28.43691 1.662181,0.34903 4.520143,0.39391 6.320687,0.23818 2.571158,-18.26477 18.259256,-32.32017 37.237806,-32.32017 20.77452,0 37.61624,16.83753 37.61624,37.60686 0,20.76933 -16.84172,37.60686 -37.61624,37.60686 -18.76872,0 -34.323033,-13.74393 -37.15259,-31.71373 v 0 h -3.253806 c -24.436079,-1.33381 -39.628452,-23.74659 -39.363639,-41.92342 0.334452,-22.87723 0.08247,-45.76362 0.0788,-68.64635 v 0 -7.56406 C 18.546057,101.28623 0,79.606315 0,53.590599 0,23.992099 23.999001,0 53.603968,0 Z m 69.227922,191.77922 c -14.70123,0 -26.619639,11.91544 -26.619639,26.61392 0,14.69848 11.918409,26.61392 26.619639,26.61392 14.70215,0 26.62056,-11.91544 26.62056,-26.61392 0,-14.69848 -11.91841,-26.61392 -26.62056,-26.61392 z m 0,-84.91132 c -14.70123,0 -26.619639,11.91543 -26.619639,26.61391 0,14.69757 11.918409,26.613 26.619639,26.613 14.70215,0 26.62056,-11.91543 26.62056,-26.613 0,-14.69848 -11.91841,-26.61391 -26.62056,-26.61391 z m 95.55159,0 c -14.70214,0 -26.61964,11.91543 -26.61964,26.61391 0,14.69757 11.9175,26.613 26.61964,26.613 14.70215,0 26.62056,-11.91543 26.62056,-26.613 0,-14.69848 -11.91841,-26.61391 -26.62056,-26.61391 z m 15.16058,15.40853 c 2.09468,2.08958 2.15241,5.44701 0.17043,7.60529 l -0.16035,0.16856 -16.30935,16.34467 c -2.07819,2.08316 -5.41446,2.15278 -7.57695,0.19787 l -0.17226,-0.16306 -7.9847,-7.85995 c -2.1634,-2.12989 -2.19089,-5.61007 -0.0605,-7.77293 2.07635,-2.1079 5.4337,-2.1876 7.60627,-0.21986 l 0.1686,0.16031 4.09223,4.02709 12.45169,-12.47791 c 2.14416,-2.15004 5.62521,-2.1537 7.77487,-0.0101 z m -95.98986,-0.0805 c 2.09467,2.08957 2.1524,5.447 0.17043,7.6062 l -0.16035,0.16764 -16.30935,16.34468 c -2.07819,2.08316 -5.41446,2.15278 -7.57695,0.19787 l -0.17226,-0.16306 -7.9847,-7.85996 c -2.16341,-2.12988 -2.1909,-5.61006 -0.0605,-7.77292 2.07543,-2.1079 5.4337,-2.1876 7.60627,-0.21895 l 0.1686,0.1594 4.09222,4.02708 12.4517,-12.4779 c 2.14416,-2.14912 5.62521,-2.15371 7.77487,-0.0101 z M 53.603968,10.992943 c -23.531684,0 -42.608282,19.070925 -42.608282,42.597656 0,23.525815 19.076598,42.597655 42.608282,42.597655 23.531685,0 42.608283,-19.07184 42.608283,-42.597655 0,-23.526731 -19.076598,-42.597656 -42.608283,-42.597656 z M 49.1706,28.130392 c 8.964233,5.385627 17.807513,10.9563 26.530757,16.711106 7.307549,4.820406 7.289223,13.562544 -0.09988,18.393943 -8.879016,5.80977 -17.899144,11.380444 -27.05855,16.712022 -7.455075,4.339464 -15.799884,-0.650416 -16.002388,-9.344002 -0.130116,-5.602737 -0.02382,-11.21097 -0.03115,-16.817371 -0.0064,-5.454332 -0.113623,-10.911412 0.01833,-16.362996 0.222662,-9.247814 8.736072,-14.066387 16.642887,-9.292702 z m -5.909265,8.871306 v 3.8686 c -9.17e-4,1.91552 -9.17e-4,3.80539 -0.0018,5.67419 l -9.16e-4,3.710119 v 5.480898 c 9.16e-4,4.230451 0.0027,8.394028 0.01008,12.557606 0.0037,1.959492 1.023515,1.879793 2.342998,1.062651 7.605349,-4.714141 15.214364,-9.422785 22.827043,-14.126848 1.25809,-0.775919 1.293826,-1.586648 0.05956,-2.365315 C 60.344965,47.725314 52.180669,42.604434 43.261335,37.001698 Z"
       fill="#4a7ebf"
       id="path4"
       style="fill:#2088ff;fill-opacity:1" /><path
       d="m 133.22712,223.87908 c 3.03573,0 5.49784,-2.46059 5.49784,-5.49647 0,-3.03497 -2.46211,-5.49648 -5.49784,-5.49648 -3.03573,0 -5.49784,2.46151 -5.49784,5.49648 0,3.03588 2.46211,5.49647 5.49784,5.49647"
       fill="#85b3df"
       id="path6"
       style="fill:#79b8ff;fill-opacity:1" /><path
       d="m 112.1789,223.87908 c 3.03573,0 5.49785,-2.46059 5.49785,-5.49647 0,-3.03497 -2.46212,-5.49648 -5.49785,-5.49648 -3.03572,0 -5.49784,2.46151 -5.49784,5.49648 0,3.03588 2.46212,5.49647 5.49784,5.49647"
       fill="#85b3df"
       id="path8"
       style="fill:#79b8ff;fill-opacity:1" /><path
       d="m 218.38376,245.00706 c -14.70215,0 -26.61964,-11.91544 -26.61964,-26.61392 0,-14.69848 11.91749,-26.61392 26.61964,-26.61392 14.70123,0 26.62055,11.91544 26.62055,26.61392 0,14.69848 -11.91932,26.61392 -26.62055,26.61392 m 0,-64.22078 c -18.90617,0 -34.55028,13.9473 -37.21124,32.11039 h -6.15208 c -2.6857,0 -4.86468,2.4615 -4.86468,5.49647 0,3.03588 2.17898,5.49647 4.86468,5.49647 h 6.15208 C 183.83348,242.0527 199.47759,256 218.38376,256 239.15827,256 256,239.16247 256,218.39314 c 0,-20.76933 -16.84173,-37.60686 -37.61624,-37.60686"
       fill="#85b3df"
       id="path10"
       style="fill:#79b8ff;fill-opacity:1" /></g></svg>
