<?xml version="1.0" encoding="UTF-8" standalone="no"?>
<svg
   viewBox="0 0 32.786999 32.786999"
   version="1.1"
   xmlns="http://www.w3.org/2000/svg">
  <defs
     id="defs4">
    <style
       id="style2">.cls-1{fill:#ea4335;}.cls-2{fill:#4285f4;}.cls-3{fill:#34a853;}.cls-4{fill:#fbbc05;}.cls-5{fill:#5f6368;}</style>
  </defs>
  <g
     id="g172"
     transform="translate(1.1069808e-4,3.2003977)">
    <path
       class="cls-1"
       d="m 20.804686,7.2659235 h 1 l 2.85,-2.85 0.14,-1.21 a 12.81,12.81 0 0 0 -20.8400004,6.25 1.55,1.55 0 0 1 1,-0.06 l 5.7000004,-0.94 c 0,0 0.29,-0.48 0.44,-0.45 a 7.11,7.11 0 0 1 9.73,-0.74 z"
       id="path6" />
    <path
       class="cls-2"
       d="m 28.714686,9.4559235 a 12.84,12.84 0 0 0 -3.87,-6.24 l -4,4 a 7.11,7.11 0 0 1 2.61,5.6399995 v 0.71 a 3.56,3.56 0 1 1 0,7.12 h -7.12 l -0.71,0.72 v 4.27 l 0.71,0.71 h 7.12 a 9.26,9.26 0 0 0 5.26,-16.9299995 z"
       id="path8" />
    <path
       class="cls-3"
       d="m 9.2046856,26.345923 h 7.1200004 v -5.7 H 9.2046856 a 3.54,3.54 0 0 1 -1.47,-0.32 l -1,0.31 -2.87,2.85 -0.25,1 a 9.21,9.21 0 0 0 5.59,1.86 z"
       id="path10" />
    <path
       class="cls-4"
       d="m 9.2046856,7.8559235 a 9.26,9.26 0 0 0 -5.59,16.5999995 l 4.13,-4.13 a 3.56,3.56 0 1 1 4.7100004,-4.71 l 4.13,-4.13 A 9.25,9.25 0 0 0 9.2046856,7.8559235 Z"
       id="path12" />
  </g>
</svg>
