<?xml version="1.0" encoding="UTF-8" standalone="no"?>
<!-- Generator: Adobe Illustrator 21.0.0, SVG Export Plug-In . SVG Version: 6.00 Build 0)  -->

<svg
   version="1.1"
   id="Layer_1"
   x="0px"
   y="0px"
   viewBox="0 0 112.7 112.7"
   xml:space="preserve"
   sodipodi:docname="grafana.svg"
   inkscape:version="1.2.2 (1:1.2.2+202212051552+b0a8486541)"
   xmlns:inkscape="http://www.inkscape.org/namespaces/inkscape"
   xmlns:sodipodi="http://sodipodi.sourceforge.net/DTD/sodipodi-0.dtd"
   xmlns="http://www.w3.org/2000/svg"
   xmlns:svg="http://www.w3.org/2000/svg"><defs
   id="defs30" /><sodipodi:namedview
   id="namedview28"
   pagecolor="#ffffff"
   bordercolor="#000000"
   borderopacity="0.25"
   inkscape:showpageshadow="2"
   inkscape:pageopacity="0.0"
   inkscape:pagecheckerboard="0"
   inkscape:deskcolor="#d1d1d1"
   showgrid="false"
   inkscape:zoom="5.84478"
   inkscape:cx="31.566629"
   inkscape:cy="50.64348"
   inkscape:window-width="1920"
   inkscape:window-height="1019"
   inkscape:window-x="0"
   inkscape:window-y="30"
   inkscape:window-maximized="1"
   inkscape:current-layer="Layer_1" />
<style
   type="text/css"
   id="style2">
	.st0{fill:#565656;}
	.st1{fill:url(#SVGID_1_);}
</style>

<linearGradient
   id="SVGID_1_"
   gradientUnits="userSpaceOnUse"
   x1="71.25"
   y1="10.4893"
   x2="71.25"
   y2="113.3415"
   gradientTransform="matrix(1,0,0,-1,-14.900002,148.6)">
	<stop
   offset="0"
   style="stop-color:#FCEE1F"
   id="stop20" />
	<stop
   offset="1"
   style="stop-color:#F15B2A"
   id="stop22" />
</linearGradient>
<path
   class="st1"
   d="m 108,49.899998 c -0.2,-1.9 -0.5,-4.1 -1.1,-6.5 -0.6,-2.4 -1.6,-5 -2.9,-7.8 -1.4,-2.7 -3.1,-5.6 -5.400002,-8.3 -0.9,-1.1 -1.9,-2.1 -2.9,-3.2 1.6,-6.3 -1.9,-11.8 -1.9,-11.8 -6.1,-0.4 -9.9,1.9 -11.3,2.9 -0.2,-0.1 -0.5,-0.2 -0.7,-0.3 -1,-0.4 -2.1,-0.8 -3.2,-1.2 -1.1,-0.3 -2.2,-0.7 -3.3,-0.9 -1.1,-0.3 -2.3,-0.5 -3.5,-0.7 -0.2,0 -0.4,-0.1 -0.6,-0.1 -2.6,-8.3999995 -10.2,-11.9999995258789 -10.2,-11.9999995258789 C 52.299998,5.5999985 50.599998,13.099998 50.599998,13.099998 c 0,0 0,0.2 -0.1,0.4 -0.5,0.1 -0.9,0.3 -1.4,0.4 -0.6,0.2 -1.3,0.4 -1.9,0.7 -0.6,0.3 -1.3,0.5 -1.9,0.8 -1.3,0.6 -2.5,1.2 -3.8,1.9 -1.2,0.7 -2.4,1.4 -3.5,2.2 -0.2,-0.1 -0.3,-0.2 -0.3,-0.2 -11.7,-4.5 -22.1,0.9 -22.1,0.9 -0.9,12.5 4.7,20.3 5.8,21.7 -0.3,0.8 -0.5,1.5 -0.8,2.3 -0.9,2.8 -1.5,5.7 -1.9,8.7 -0.1,0.4 -0.1,0.9 -0.2,1.3 -10.7999995,5.3 -13.9999995,16.3 -13.9999995,16.3 8.9999995,10.4 19.5999995,11 19.5999995,11 v 0 c 1.3,2.4 2.9,4.7 4.6,6.8 0.7,0.9 1.5,1.7 2.3,2.6 -3.3,9.400002 0.5,17.300002 0.5,17.300002 10.1,0.4 16.7,-4.4 18.1,-5.5 1,0.3 2,0.6 3,0.9 3.1,0.8 6.3,1.3 9.4,1.4 0.8,0 1.6,0 2.4,0 h 0.4 0.3 0.5 0.5 v 0 c 4.7,6.8 13.1,7.7 13.1,7.7 5.9,-6.3 6.3,-12.4 6.3,-13.800002 v 0 c 0,0 0,0 0,-0.1 0,-0.1 0,-0.2 0,-0.2 v 0 c 0,-0.1 0,-0.2 0,-0.3 1.2,-0.9 2.4,-1.8 3.6,-2.8 2.4,-2.1 4.4,-4.6 6.2,-7.2 0.2,-0.2 0.3,-0.5 0.5,-0.7 6.700002,0.4 11.400002,-4.2 11.400002,-4.2 -1.1,-7 -5.1,-10.4 -5.9,-11 v 0 c 0,0 0,0 -0.1,-0.1 l -0.1,-0.1 v 0 l -0.1,-0.1 c 0,-0.4 0.1,-0.8 0.1,-1.3 0.1,-0.8 0.1,-1.5 0.1,-2.3 v -0.6 -0.3 -0.1 c 0,-0.2 0,-0.1 0,-0.2 v -0.5 -0.6 c 0,-0.2 0,-0.4 0,-0.6 0,-0.2 0,-0.4 -0.1,-0.6 l -0.1,-0.6 -0.1,-0.6 c -0.1,-0.8 -0.3,-1.5 -0.4,-2.3 -0.700002,-3 -1.900002,-5.9 -3.400002,-8.4 -1.6,-2.6 -3.5,-4.8 -5.7,-6.8 -2.2,-1.9 -4.6,-3.5 -7.2,-4.6 -2.6,-1.2 -5.2,-1.9 -7.9,-2.2 -1.3,-0.2 -2.7,-0.2 -4,-0.2 h -0.5 -0.1 -0.2 -0.2 -0.5 c -0.2,0 -0.4,0 -0.5,0 -0.7,0.1 -1.4,0.2 -2,0.3 -2.7,0.5 -5.2,1.5 -7.4,2.8 -2.2,1.3 -4.1,3 -5.7,4.9 -1.6,1.9 -2.8,3.9 -3.6,6.1 -0.8,2.1 -1.3,4.4 -1.4,6.5 0,0.5 0,1.1 0,1.6 0,0.1 0,0.3 0,0.4 v 0.4 c 0,0.3 0,0.5 0.1,0.8 0.1,1.1 0.3,2.1 0.6,3.1 0.6,2 1.5,3.8 2.7,5.4 1.2,1.6 2.5,2.8 4,3.8 1.5,1 3,1.7 4.6,2.2 1.6,0.5 3.1,0.7 4.5,0.6 0.2,0 0.4,0 0.5,0 0.1,0 0.2,0 0.3,0 0.1,0 0.2,0 0.3,0 0.2,0 0.3,0 0.5,0 h 0.1 0.1 c 0.1,0 0.2,0 0.3,0 0.2,0 0.4,-0.1 0.5,-0.1 0.2,0 0.3,-0.1 0.5,-0.1 0.3,-0.1 0.7,-0.2 1,-0.3 0.6,-0.2 1.2,-0.5 1.8,-0.7 0.6,-0.3 1.1,-0.6 1.5,-0.9 0.1,-0.1 0.3,-0.2 0.4,-0.3 0.5,-0.4 0.6,-1.1 0.2,-1.6 -0.4,-0.4 -1,-0.5 -1.5,-0.3 -0.1,0.1 -0.2,0.1 -0.4,0.2 -0.4,0.2 -0.9,0.4 -1.3,0.5 -0.5,0.1 -1,0.3 -1.5,0.4 -0.3,0 -0.5,0.1 -0.8,0.1 -0.1,0 -0.3,0 -0.4,0 -0.1,0 -0.3,0 -0.4,0 -0.1,0 -0.3,0 -0.4,0 -0.2,0 -0.3,0 -0.5,0 0,0 -0.1,0 0,0 h -0.1 -0.1 c -0.1,0 -0.1,0 -0.2,0 -0.1,0 -0.3,0 -0.4,-0.1 -1.1,-0.2 -2.3,-0.5 -3.4,-1 -1.1,-0.5 -2.2,-1.2 -3.1,-2.1 -1,-0.9 -1.8,-1.9 -2.5,-3.1 -0.7,-1.2 -1.1,-2.5 -1.3,-3.8 -0.1,-0.7 -0.2,-1.4 -0.1,-2.1 0,-0.2 0,-0.4 0,-0.6 0,0.1 0,0 0,0 v -0.1 -0.1 c 0,-0.1 0,-0.2 0,-0.3 0,-0.4 0.1,-0.7 0.2,-1.1 0.5,-3 2,-5.9 4.3,-8.1 0.6,-0.6 1.2,-1.1 1.9,-1.5 0.7,-0.5 1.4,-0.9 2.1,-1.2 0.7,-0.3 1.5,-0.6 2.3,-0.8 0.8,-0.2 1.6,-0.4 2.4,-0.4 0.4,0 0.8,-0.1 1.2,-0.1 0.1,0 0.2,0 0.3,0 h 0.3 0.2 c 0.1,0 0,0 0,0 h 0.1 0.3 c 0.9,0.1 1.8,0.2 2.6,0.4 1.7,0.4 3.4,1 5,1.9 3.2,1.8 5.9,4.5 7.5,7.8 0.8,1.6 1.4,3.4 1.7,5.3 0.1,0.5 0.1,0.9 0.2,1.4 v 0.3 0.3 c 0,0.1 0,0.2 0,0.3 0,0.1 0,0.2 0,0.3 v 0.3 0.3 c 0,0.2 0,0.6 0,0.8 0,0.5 -0.1,1 -0.1,1.5 -0.1,0.5 -0.1,1 -0.2,1.5 -0.1,0.5 -0.2,1 -0.3,1.5 -0.2,1 -0.6,1.9 -0.9,2.9 -0.7,1.9 -1.7,3.7 -2.9,5.3 -2.4,3.3 -5.7,6 -9.4,7.7 -1.9,0.8 -3.8,1.5 -5.8,1.8 -1,0.2 -2,0.3 -3,0.3 h -0.2 -0.2 -0.3 -0.5 -0.3 c 0.1,0 0,0 0,0 h -0.1 c -0.5,0 -1.1,0 -1.6,-0.1 -2.2,-0.2 -4.3,-0.6 -6.4,-1.2 -2.1,-0.6 -4.1,-1.4 -6,-2.4 -3.8,-2 -7.2,-4.9 -9.9,-8.2 -1.3,-1.7 -2.5,-3.5 -3.5,-5.4 -1,-1.9 -1.7,-3.9 -2.3,-5.9 -0.6,-2 -0.9,-4.1 -1,-6.2 v -0.4 -0.1 -0.1 -0.2 -0.3 -0.1 -0.1 -0.2 -0.5 -0.1 0 -0.2 c 0,-0.3 0,-0.5 0,-0.8 0,-1 0.1,-2.1 0.3,-3.2 0.1,-1.1 0.3,-2.1 0.5,-3.2 0.2,-1.1 0.5,-2.1 0.8,-3.2 0.6,-2.1 1.3,-4.1 2.2,-6 1.8,-3.8 4.1,-7.2 6.8,-9.9 0.7,-0.7 1.4,-1.3 2.2,-1.9 0.3,-0.3 1,-0.9 1.8,-1.4 0.8,-0.5 1.6,-1 2.5,-1.4 0.4,-0.2 0.8,-0.4 1.3,-0.6 0.2,-0.1 0.4,-0.2 0.7,-0.3 0.2,-0.1 0.4,-0.2 0.7,-0.3 0.9,-0.4 1.8,-0.7 2.7,-1 0.2,-0.1 0.5,-0.1 0.7,-0.2 0.2,-0.1 0.5,-0.1 0.7,-0.2 0.5,-0.1 0.9,-0.2 1.4,-0.4 0.2,-0.1 0.5,-0.1 0.7,-0.2 0.2,0 0.5,-0.1 0.7,-0.1 0.2,0 0.5,-0.1 0.7,-0.1 l 0.4,-0.1 0.4,-0.1 c 0.2,0 0.5,-0.1 0.7,-0.1 0.3,0 0.5,-0.1 0.8,-0.1 0.2,0 0.6,-0.1 0.8,-0.1 0.2,0 0.3,0 0.5,-0.1 h 0.3 0.2 0.2 c 0.3,0 0.5,0 0.8,-0.1 h 0.4 c 0,0 0.1,0 0,0 h 0.1 0.2 c 0.2,0 0.5,0 0.7,0 0.9,0 1.8,0 2.7,0 1.8,0.1 3.6,0.3 5.3,0.6 3.4,0.6 6.7,1.7 9.6,3.2 2.9,1.4 5.6,3.2 7.8,5.1 0.1,0.1 0.3,0.2 0.4,0.4 0.1,0.1 0.3,0.2 0.4,0.4 0.3,0.2 0.5,0.5 0.8,0.7 0.3,0.2 0.5,0.5 0.8,0.7 0.2,0.3 0.5,0.5 0.7,0.8 1,1 1.9,2.1 2.7,3.1 1.600002,2.1 2.900002,4.2 3.900002,6.2 0.1,0.1 0.1,0.2 0.2,0.4 0.1,0.1 0.1,0.2 0.2,0.4 0.1,0.2 0.2,0.5 0.4,0.7 0.1,0.2 0.2,0.5 0.3,0.7 0.1,0.2 0.2,0.5 0.3,0.7 0.4,0.9 0.7,1.8 1,2.7 0.5,1.4 0.8,2.6 1.1,3.6 0.1,0.4 0.5,0.7 0.9,0.7 0.5,0 0.8,-0.4 0.8,-0.9 -0.1,-1.2 -0.1,-2.5 -0.2,-4 z"
   id="path25"
   style="fill:url(#SVGID_1_)" />
</svg>
