<?xml version="1.0" encoding="UTF-8" standalone="no"?>
<svg
   fill-rule="evenodd"
   stroke-miterlimit="1.414"
   viewBox="0 0 500 500"
   clip-rule="evenodd"
   stroke-linejoin="round"
   aria-label="Logo"
   version="1.1"
   id="svg26"
   sodipodi:docname="hugo.svg"
   inkscape:version="1.2.2 (1:1.2.2+202212051552+b0a8486541)"
   xmlns:inkscape="http://www.inkscape.org/namespaces/inkscape"
   xmlns:sodipodi="http://sodipodi.sourceforge.net/DTD/sodipodi-0.dtd"
   xmlns="http://www.w3.org/2000/svg"
   xmlns:svg="http://www.w3.org/2000/svg">
  <defs
     id="defs30" />
  <sodipodi:namedview
     id="namedview28"
     pagecolor="#ffffff"
     bordercolor="#000000"
     borderopacity="0.25"
     inkscape:showpageshadow="2"
     inkscape:pageopacity="0.0"
     inkscape:pagecheckerboard="0"
     inkscape:deskcolor="#d1d1d1"
     showgrid="false"
     inkscape:zoom="0.64532307"
     inkscape:cx="198.35026"
     inkscape:cy="354.86102"
     inkscape:window-width="1920"
     inkscape:window-height="1019"
     inkscape:window-x="0"
     inkscape:window-y="30"
     inkscape:window-maximized="1"
     inkscape:current-layer="svg26" />
  <g
     id="g4083"
     transform="matrix(1.2940628,0,0,1.2940628,22.122658,-18.042463)">
    <path
       fill="#ff4088"
       d="M 335.1,261.86 V 139.606 c 0,-15.898 -8.42,-30.606 -22.126,-38.66 -29.417,-17.283 -81.387,-47.818 -113.215,-66.52 -16.81,-9.872 -37.69,-9.65 -54.28,0.58 -28.17,17.37 -72.12,44.47 -100.49,61.967 -17.11,10.55 -27.53,29.21 -27.53,49.31 v 125.172 c 0,19.938 10.58,38.376 27.79,48.437 l 104.72,61.212 c 13.92,8.14 31.11,8.317 45.2,0.47 30.58,-17.036 84.74,-47.196 115.94,-64.575 14.8,-8.25 23.97,-23.86 23.97,-40.8 v -14.34 z"
       id="path2" />
    <path
       fill="#c9177e"
       d="m 173.24,13.676 h 0.277 l 0.247,0.003 h 1.414 l 0.247,0.01 h 0.03 l 0.247,0.01 h 0.027 l 0.25,0.01 h 0.02 l 0.25,0.01 h 0.03 l 0.24,0.01 h 0.03 l 0.24,0.01 h 0.02 l 0.25,0.01 h 0.03 l 0.25,0.02 h 0.03 l 0.24,0.02 h 0.02 l 0.24,0.02 h 0.03 l 0.25,0.02 h 0.02 l 0.24,0.02 h 0.03 l 0.25,0.02 h 0.03 l 0.25,0.02 h 0.03 l 0.25,0.02 h 0.03 l 0.24,0.02 h 0.03 l 0.24,0.02 h 0.03 l 0.25,0.02 h 0.03 l 0.25,0.03 h 0.03 l 0.25,0.03 h 0.02 l 0.24,0.03 h 0.03 l 0.24,0.03 h 0.03 l 0.25,0.03 h 0.03 l 0.25,0.03 h 0.02 l 0.24,0.03 h 0.03 l 0.25,0.03 h 0.03 l 0.24,0.04 0.03,0.01 0.25,0.04 h 0.03 l 0.24,0.04 h 0.02 l 0.25,0.04 h 0.03 l 0.24,0.04 h 0.03 l 0.24,0.04 h 0.02 l 0.25,0.04 h 0.03 l 0.24,0.04 0.03,0.01 0.24,0.04 0.03,0.01 0.24,0.05 h 0.03 l 0.24,0.04 h 0.03 l 0.24,0.05 h 0.03 l 0.25,0.05 h 0.02 l 0.24,0.05 h 0.03 l 0.24,0.05 h 0.02 l 0.25,0.05 0.03,0.01 0.25,0.05 h 0.02 l 0.24,0.06 0.03,0.01 0.24,0.06 h 0.03 l 0.25,0.06 0.02,0.01 0.24,0.05 0.03,0.01 0.24,0.05 0.02,0.01 0.24,0.06 h 0.03 l 0.24,0.06 0.03,0.01 0.24,0.06 0.02,0.01 0.25,0.06 0.02,0.01 0.24,0.06 0.03,0.01 0.24,0.06 h 0.02 l 0.24,0.07 h 0.03 l 0.25,0.06 0.03,0.01 0.24,0.06 h 0.03 l 0.24,0.07 0.03,0.01 0.24,0.07 0.03,0.01 0.24,0.07 0.03,0.01 0.24,0.07 0.02,0.01 0.24,0.07 0.03,0.01 0.24,0.07 0.03,0.01 0.24,0.07 0.03,0.01 0.24,0.08 0.02,0.01 0.24,0.08 h 0.03 l 0.24,0.08 h 0.03 l 0.24,0.08 0.03,0.01 0.24,0.08 0.03,0.01 0.24,0.08 0.02,0.01 0.24,0.08 0.03,0.01 0.24,0.08 0.02,0.01 0.24,0.08 0.02,0.01 0.23,0.08 0.03,0.01 0.23,0.08 0.03,0.01 0.23,0.09 0.03,0.01 0.24,0.09 0.03,0.01 0.23,0.09 0.02,0.01 0.24,0.08 0.02,0.01 0.24,0.09 0.03,0.01 0.24,0.09 0.03,0.01 0.23,0.09 0.03,0.01 0.23,0.1 0.02,0.01 0.24,0.09 0.03,0.01 0.23,0.1 0.03,0.01 0.24,0.1 0.03,0.01 0.24,0.1 0.02,0.01 0.24,0.1 0.02,0.01 0.23,0.1 0.02,0.01 0.23,0.1 0.02,0.01 0.24,0.1 0.02,0.01 0.23,0.1 0.03,0.01 0.23,0.1 0.03,0.01 0.23,0.1 0.02,0.01 0.23,0.11 0.03,0.01 0.23,0.11 0.03,0.01 0.23,0.11 0.02,0.01 0.23,0.11 0.02,0.01 0.23,0.11 0.03,0.01 0.23,0.11 0.03,0.01 0.23,0.11 0.03,0.01 0.23,0.11 0.02,0.01 0.23,0.12 0.02,0.02 0.23,0.11 0.02,0.01 0.22,0.12 0.03,0.01 0.23,0.11 0.02,0.01 0.23,0.12 0.03,0.01 0.22,0.12 0.03,0.02 0.23,0.12 0.03,0.01 0.23,0.12 0.02,0.01 0.22,0.12 0.03,0.02 0.23,0.12 0.02,0.02 0.22,0.13 0.02,0.02 0.22,0.13 0.03,0.01 0.22,0.13 0.02,0.01 0.22,0.13 0.02,0.02 0.22,0.13 0.03,0.02 0.21,0.13 h 0.02 l 113.3,66.57 0.19,0.11 0.02,0.02 0.19,0.11 0.03,0.01 0.18,0.12 0.02,0.02 0.18,0.11 0.02,0.02 0.18,0.11 0.02,0.01 0.18,0.11 0.02,0.01 0.18,0.11 0.02,0.01 0.18,0.11 0.03,0.01 0.18,0.12 0.02,0.01 0.18,0.12 0.03,0.01 0.18,0.11 0.02,0.01 0.18,0.12 0.02,0.02 0.18,0.12 0.02,0.02 0.17,0.11 0.03,0.01 0.18,0.12 0.02,0.01 0.18,0.12 0.02,0.01 0.17,0.12 0.02,0.01 0.17,0.12 0.02,0.01 0.17,0.12 0.02,0.02 0.17,0.12 0.02,0.01 0.17,0.13 0.03,0.02 0.17,0.12 0.02,0.01 0.17,0.12 0.02,0.01 0.17,0.12 0.02,0.02 0.17,0.12 0.02,0.01 0.17,0.12 0.02,0.02 0.17,0.12 0.02,0.02 0.17,0.13 0.03,0.02 0.16,0.13 0.03,0.02 0.17,0.13 0.03,0.01 0.17,0.13 0.02,0.02 0.17,0.13 0.02,0.02 0.16,0.13 0.03,0.02 0.17,0.14 0.03,0.03 0.32,0.26 0.04,0.03 0.32,0.27 0.04,0.03 0.33,0.27 0.04,0.03 0.33,0.27 0.04,0.03 0.32,0.27 0.04,0.04 0.32,0.27 0.04,0.03 0.31,0.28 0.04,0.03 0.31,0.28 0.04,0.03 0.31,0.29 0.04,0.03 0.3,0.28 0.04,0.03 0.31,0.29 0.04,0.04 0.3,0.29 0.04,0.04 0.3,0.29 0.04,0.04 0.29,0.29 0.04,0.04 0.29,0.3 0.04,0.04 0.29,0.3 0.03,0.04 0.29,0.3 0.04,0.04 0.28,0.3 0.04,0.04 0.28,0.3 0.04,0.04 0.28,0.3 0.04,0.04 0.28,0.31 0.04,0.04 0.27,0.32 0.03,0.04 0.28,0.31 0.04,0.04 0.27,0.32 0.04,0.04 0.27,0.32 0.03,0.04 0.27,0.32 0.04,0.04 0.26,0.32 0.03,0.04 0.26,0.32 0.04,0.04 0.26,0.33 0.03,0.04 0.25,0.33 0.03,0.04 0.25,0.33 0.03,0.04 0.25,0.33 0.03,0.05 0.25,0.34 0.03,0.04 0.25,0.33 0.03,0.05 0.24,0.34 0.03,0.04 0.24,0.34 0.03,0.04 0.24,0.34 0.03,0.05 0.23,0.34 0.03,0.05 0.23,0.35 0.03,0.05 0.22,0.34 0.03,0.04 0.22,0.34 0.03,0.04 0.23,0.35 0.03,0.04 0.22,0.35 0.03,0.05 0.21,0.35 0.03,0.05 0.22,0.35 0.03,0.05 0.21,0.35 0.03,0.05 0.21,0.36 0.03,0.04 0.2,0.36 0.03,0.05 0.2,0.36 0.03,0.05 0.2,0.36 0.03,0.05 0.2,0.36 0.02,0.05 0.2,0.37 0.02,0.05 0.19,0.37 0.02,0.05 0.19,0.37 0.03,0.04 0.18,0.38 0.02,0.05 0.19,0.37 0.02,0.05 0.18,0.37 0.03,0.05 0.17,0.38 0.02,0.05 0.17,0.38 0.02,0.05 0.17,0.38 0.02,0.05 0.17,0.38 0.02,0.05 0.16,0.38 0.02,0.05 0.16,0.38 0.02,0.05 0.15,0.39 0.02,0.05 0.15,0.38 0.02,0.05 0.15,0.39 0.02,0.05 0.15,0.39 0.02,0.05 0.15,0.39 0.02,0.05 0.14,0.39 0.02,0.05 0.13,0.39 0.02,0.05 0.13,0.39 0.02,0.05 0.13,0.39 0.02,0.05 0.13,0.4 0.01,0.05 0.12,0.39 0.02,0.05 0.12,0.4 0.01,0.05 0.12,0.4 0.02,0.05 0.12,0.4 0.02,0.05 0.11,0.4 0.02,0.05 0.11,0.4 0.01,0.05 0.1,0.4 0.02,0.06 0.11,0.41 0.01,0.05 0.1,0.41 0.02,0.05 0.09,0.41 0.02,0.05 0.1,0.41 0.01,0.06 0.09,0.41 0.01,0.05 0.09,0.41 0.01,0.05 0.08,0.41 0.01,0.05 0.08,0.41 0.01,0.05 0.08,0.41 0.01,0.05 0.07,0.42 0.01,0.05 0.07,0.41 0.01,0.06 0.07,0.42 0.01,0.06 0.06,0.42 0.01,0.06 0.06,0.41 v 0.04 l 0.03,0.22 v 0.02 l 0.02,0.21 v 0.03 l 0.03,0.21 v 0.02 l 0.03,0.21 v 0.03 l 0.03,0.21 0.01,0.03 0.03,0.21 v 0.03 l 0.02,0.21 0.01,0.02 0.02,0.21 0.01,0.03 0.02,0.21 v 0.03 l 0.02,0.21 0.01,0.03 0.02,0.21 0.01,0.03 0.02,0.21 v 0.03 l 0.02,0.21 v 0.03 l 0.02,0.21 v 0.03 l 0.02,0.21 v 0.03 l 0.02,0.21 v 0.03 l 0.01,0.21 v 0.03 l 0.01,0.22 v 0.03 l 0.02,0.22 v 0.02 l 0.01,0.21 v 0.03 l 0.01,0.21 v 0.03 l 0.01,0.21 v 0.03 l 0.01,0.21 v 0.03 l 0.01,0.22 v 0.03 l 0.01,0.21 v 0.03 l 0.01,0.21 v 0.02 l 0.01,0.21 v 139.6 l -0.01,0.23 v 0.29 l -0.01,0.23 v 0.03 l -0.01,0.22 v 0.02 l -0.01,0.23 v 0.03 l -0.01,0.22 v 0.02 l -0.01,0.22 v 0.03 l -0.01,0.22 -0.01,0.03 -0.01,0.22 v 0.03 l -0.01,0.22 v 0.02 l -0.01,0.23 v 0.03 l -0.02,0.23 v 0.02 l -0.02,0.23 v 0.03 l -0.02,0.22 v 0.03 l -0.01,0.22 v 0.03 l -0.02,0.22 v 0.03 l -0.02,0.22 v 0.03 l -0.02,0.22 v 0.03 l -0.02,0.22 -0.01,0.02 -0.02,0.23 -0.01,0.03 -0.02,0.22 v 0.03 l -0.02,0.22 -0.01,0.03 -0.03,0.22 v 0.03 l -0.03,0.22 v 0.02 l -0.03,0.22 v 0.03 l -0.03,0.22 -0.01,0.03 -0.03,0.23 -0.01,0.03 -0.03,0.22 -0.01,0.03 -0.03,0.22 v 0.03 l -0.03,0.22 v 0.03 l -0.03,0.22 -0.01,0.03 -0.03,0.22 -0.01,0.03 -0.04,0.22 v 0.02 l -0.03,0.22 v 0.02 l -0.04,0.22 -0.01,0.03 -0.03,0.22 -0.01,0.03 -0.03,0.22 v 0.02 l -0.04,0.22 v 0.02 l -0.04,0.22 v 0.02 l -0.04,0.22 v 0.03 l -0.04,0.21 -0.01,0.03 -0.04,0.21 -0.01,0.03 -0.04,0.22 -0.01,0.03 -0.05,0.22 v 0.02 l -0.05,0.22 v 0.02 l -0.04,0.21 v 0.03 l -0.05,0.22 v 0.02 l -0.04,0.22 -0.01,0.02 -0.05,0.21 v 0.02 l -0.05,0.21 v 0.03 l -0.05,0.21 -0.01,0.03 -0.05,0.21 -0.01,0.03 -0.05,0.21 -0.01,0.02 -0.05,0.21 -0.01,0.02 -0.05,0.21 -0.01,0.03 -0.06,0.21 -0.01,0.03 -0.05,0.21 -0.01,0.03 -0.06,0.21 v 0.03 l -0.06,0.22 -0.01,0.03 -0.06,0.21 v 0.03 l -0.06,0.21 -0.01,0.03 -0.06,0.21 -0.01,0.03 -0.06,0.22 -0.01,0.02 -0.06,0.21 -0.01,0.02 -0.06,0.21 -0.01,0.03 -0.07,0.21 -0.01,0.03 -0.06,0.21 -0.01,0.02 -0.06,0.21 -0.01,0.03 -0.06,0.21 -0.01,0.02 -0.07,0.21 -0.01,0.03 -0.07,0.21 -0.01,0.03 -0.07,0.21 -0.01,0.03 -0.07,0.21 -0.01,0.03 -0.07,0.21 -0.01,0.02 -0.07,0.21 -0.01,0.03 -0.07,0.21 -0.01,0.03 -0.07,0.21 -0.01,0.02 -0.07,0.21 -0.01,0.03 -0.07,0.21 -0.01,0.03 -0.08,0.2 -0.01,0.03 -0.07,0.2 -0.01,0.03 -0.07,0.2 -0.01,0.03 -0.07,0.21 -0.01,0.03 -0.08,0.21 -0.01,0.03 -0.08,0.2 -0.01,0.03 -0.08,0.2 -0.01,0.03 -0.08,0.2 -0.01,0.03 -0.08,0.2 -0.01,0.03 -0.08,0.2 -0.01,0.03 -0.08,0.2 -0.01,0.02 -0.09,0.2 -0.01,0.03 -0.09,0.21 -0.01,0.03 -0.08,0.2 -0.01,0.03 -0.09,0.2 -0.01,0.03 -0.09,0.2 -0.01,0.03 -0.09,0.2 -0.01,0.02 -0.09,0.2 -0.01,0.03 -0.09,0.2 -0.01,0.02 -0.09,0.2 -0.01,0.02 -0.09,0.2 -0.01,0.02 -0.09,0.2 -0.01,0.02 -0.1,0.2 -0.01,0.02 -0.1,0.19 -0.01,0.03 -0.09,0.2 -0.01,0.02 -0.1,0.19 -0.01,0.03 -0.09,0.2 -0.01,0.02 -0.1,0.2 -0.01,0.03 -0.1,0.2 -0.01,0.02 -0.1,0.19 -0.01,0.02 -0.1,0.2 -0.01,0.03 -0.1,0.2 -0.01,0.03 -0.1,0.2 -0.02,0.03 -0.1,0.19 -0.01,0.02 -0.1,0.2 -0.01,0.03 -0.1,0.2 -0.01,0.03 -0.11,0.19 -0.02,0.02 -0.11,0.19 -0.01,0.02 -0.11,0.19 -0.01,0.02 -0.11,0.19 -0.01,0.02 -0.11,0.19 -0.01,0.02 -0.11,0.19 -0.01,0.03 -0.11,0.19 -0.01,0.02 -0.11,0.19 -0.01,0.03 -0.11,0.19 -0.02,0.02 -0.11,0.19 -0.02,0.02 -0.11,0.19 -0.01,0.02 -0.11,0.19 -0.01,0.03 -0.12,0.19 -0.01,0.02 -0.11,0.18 -0.01,0.03 -0.11,0.18 -0.02,0.02 -0.12,0.19 -0.01,0.03 -0.12,0.18 -0.02,0.02 -0.12,0.18 -0.01,0.02 -0.12,0.19 -0.02,0.03 -0.12,0.18 -0.02,0.02 -0.12,0.18 -0.01,0.02 -0.12,0.19 -0.01,0.02 -0.12,0.18 -0.02,0.02 -0.13,0.18 -0.01,0.02 -0.12,0.18 -0.01,0.02 -0.13,0.18 -0.01,0.02 -0.12,0.18 -0.02,0.02 -0.12,0.18 -0.02,0.02 -0.13,0.18 -0.02,0.02 -0.12,0.18 -0.01,0.02 -0.13,0.18 -0.02,0.03 -0.12,0.18 -0.02,0.02 -0.13,0.18 -0.02,0.02 -0.13,0.18 -0.02,0.02 -0.13,0.18 -0.02,0.02 -0.13,0.18 -0.01,0.02 -0.13,0.17 -0.02,0.02 -0.13,0.17 -0.01,0.02 -0.14,0.17 -0.02,0.02 -0.13,0.17 -0.01,0.02 -0.13,0.18 -0.02,0.02 -0.14,0.18 -0.02,0.02 -0.14,0.17 -0.02,0.02 -0.14,0.17 -0.01,0.02 -0.14,0.17 -0.02,0.02 -0.14,0.17 -0.02,0.02 -0.14,0.17 -0.02,0.02 -0.14,0.17 -0.02,0.02 -0.14,0.17 -0.01,0.02 -0.14,0.17 -0.02,0.02 -0.15,0.17 -0.02,0.02 -0.14,0.17 -0.02,0.02 -0.14,0.17 -0.02,0.02 -0.14,0.17 -0.02,0.02 -0.14,0.17 -0.02,0.02 -0.14,0.16 -0.02,0.02 -0.15,0.17 -0.02,0.02 -0.14,0.17 -0.02,0.02 -0.15,0.17 -0.02,0.02 -0.14,0.17 -0.02,0.02 -0.15,0.16 -0.02,0.02 -0.15,0.16 -0.02,0.02 -0.15,0.16 -0.02,0.02 -0.15,0.16 -0.02,0.02 -0.15,0.16 -0.02,0.02 -0.15,0.16 -0.02,0.02 -0.15,0.16 -0.02,0.02 -0.15,0.16 -0.02,0.02 -0.16,0.16 -0.02,0.02 -0.15,0.16 -0.02,0.02 -0.15,0.15 -0.02,0.02 -0.16,0.16 -0.03,0.02 -0.16,0.16 -0.02,0.02 -0.16,0.15 -0.02,0.02 -0.16,0.16 -0.02,0.02 -0.16,0.15 -0.02,0.02 -0.16,0.15 -0.02,0.02 -0.16,0.15 -0.02,0.02 -0.16,0.15 -0.02,0.02 -0.16,0.15 -0.02,0.02 -0.16,0.15 -0.02,0.02 -0.17,0.15 -0.02,0.01 -0.16,0.15 -0.02,0.02 -0.17,0.15 -0.02,0.02 -0.17,0.15 -0.02,0.01 -0.17,0.15 -0.02,0.02 -0.17,0.14 -0.03,0.02 -0.17,0.14 -0.02,0.02 -0.17,0.15 -0.02,0.02 -0.17,0.15 -0.02,0.02 -0.17,0.15 -0.02,0.02 -0.17,0.14 -0.02,0.02 -0.18,0.14 -0.02,0.01 -0.17,0.14 -0.02,0.02 -0.17,0.14 -0.03,0.02 -0.17,0.14 -0.02,0.02 -0.17,0.14 -0.02,0.02 -0.17,0.14 -0.02,0.02 -0.18,0.14 -0.02,0.02 -0.17,0.13 -0.02,0.02 -0.18,0.14 -0.02,0.02 -0.18,0.14 -0.02,0.02 -0.18,0.14 -0.02,0.02 -0.18,0.14 -0.02,0.01 -0.18,0.13 -0.02,0.01 -0.18,0.13 -0.02,0.01 -0.18,0.13 -0.03,0.01 -0.18,0.13 -0.02,0.02 -0.18,0.13 -0.02,0.02 -0.18,0.13 -0.02,0.02 -0.18,0.13 -0.03,0.02 -0.18,0.13 -0.02,0.01 -0.19,0.13 -0.03,0.01 -0.19,0.13 -0.02,0.02 -0.19,0.13 -0.02,0.02 -0.19,0.12 -0.02,0.02 -0.19,0.13 -0.02,0.02 -0.18,0.13 -0.03,0.02 -0.19,0.12 -0.02,0.01 -0.19,0.12 -0.03,0.01 -0.19,0.12 -0.02,0.02 -0.19,0.12 -0.02,0.02 -0.19,0.12 -0.02,0.01 -0.19,0.12 -0.03,0.01 -0.19,0.12 -0.02,0.02 -0.19,0.12 -0.03,0.01 -0.19,0.12 -0.03,0.02 -0.19,0.12 -0.03,0.02 -0.2,0.12 -0.02,0.02 -0.19,0.11 -0.03,0.01 -0.19,0.11 -0.02,0.02 -0.2,0.12 -0.03,0.02 -0.2,0.11 -0.02,0.02 -0.19,0.11 -0.03,0.01 -0.2,0.11 -0.03,0.01 -0.2,0.11 -0.02,0.01 -0.19,0.11 -0.01,0.01 -115.93,64.6 h -0.01 l -0.18,0.11 -0.03,0.01 -0.19,0.11 -0.03,0.02 -0.19,0.1 -0.03,0.01 -0.19,0.1 -0.02,0.01 -0.19,0.1 -0.03,0.01 -0.19,0.1 -0.03,0.01 -0.19,0.1 -0.03,0.01 -0.19,0.1 -0.02,0.01 -0.19,0.1 -0.02,0.01 -0.19,0.09 -0.02,0.01 -0.2,0.1 -0.02,0.02 -0.19,0.1 -0.02,0.01 -0.19,0.09 -0.02,0.01 -0.19,0.09 -0.02,0.01 -0.19,0.1 -0.02,0.01 -0.2,0.09 -0.02,0.01 -0.19,0.09 -0.02,0.01 -0.2,0.09 -0.02,0.01 -0.19,0.09 -0.02,0.01 -0.19,0.09 -0.03,0.02 -0.2,0.09 -0.02,0.01 -0.2,0.08 -0.02,0.01 -0.2,0.09 -0.02,0.02 -0.2,0.09 -0.03,0.01 -0.19,0.08 -0.02,0.01 -0.2,0.09 -0.02,0.01 -0.2,0.08 -0.02,0.01 -0.2,0.08 -0.02,0.01 -0.2,0.08 -0.03,0.01 -0.2,0.08 -0.03,0.01 -0.2,0.08 -0.03,0.01 -0.19,0.08 -0.02,0.01 -0.2,0.07 -0.02,0.01 -0.2,0.08 -0.03,0.01 -0.2,0.08 -0.03,0.01 -0.2,0.08 -0.03,0.01 -0.2,0.07 -0.03,0.01 -0.2,0.08 -0.03,0.01 -0.2,0.07 -0.02,0.01 -0.2,0.07 -0.03,0.01 -0.2,0.07 -0.03,0.01 -0.2,0.07 -0.03,0.01 -0.2,0.07 -0.02,0.01 -0.2,0.07 -0.2,0.07 -0.03,0.01 -0.21,0.06 -0.03,0.01 -0.2,0.06 -0.02,0.01 -0.2,0.07 -0.02,0.01 -0.21,0.06 -0.03,0.01 -0.2,0.06 -0.03,0.01 -0.2,0.06 -0.03,0.01 -0.21,0.07 -0.04,0.01 -0.4,0.12 -0.05,0.02 -0.41,0.12 -0.05,0.01 -0.41,0.12 -0.05,0.01 -0.41,0.11 -0.05,0.02 -0.41,0.11 -0.05,0.01 -0.41,0.11 -0.06,0.01 -0.41,0.1 -0.05,0.01 -0.41,0.1 -0.06,0.01 -0.41,0.1 -0.05,0.01 -0.41,0.09 -0.05,0.01 -0.42,0.09 -0.06,0.01 -0.42,0.09 -0.05,0.01 -0.42,0.08 -0.05,0.01 -0.41,0.07 -0.05,0.01 -0.41,0.08 -0.05,0.01 -0.42,0.07 -0.05,0.01 -0.42,0.07 -0.05,0.01 -0.42,0.06 -0.05,0.01 -0.42,0.06 -0.05,0.01 -0.42,0.06 -0.05,0.01 -0.42,0.06 -0.06,0.01 -0.42,0.05 -0.05,0.01 -0.42,0.05 -0.05,0.01 -0.42,0.05 -0.42,0.04 h -0.05 l -0.42,0.03 -0.05,0.01 -0.42,0.03 h -0.05 l -0.42,0.03 h -0.05 l -0.42,0.03 -0.06,0.01 -0.42,0.03 h -0.05 l -0.42,0.02 h -0.05 l -0.42,0.02 h -0.06 l -0.42,0.01 h -0.05 l -0.42,0.01 h -0.05 l -0.42,0.01 h -1.48 l -0.42,-0.01 -0.42,-0.01 h -0.06 l -0.42,-0.01 H 171 l -0.42,-0.02 -0.05,-0.01 -0.42,-0.02 h -0.05 l -0.42,-0.02 -0.05,-0.01 -0.42,-0.02 h -0.05 l -0.42,-0.03 -0.05,-0.01 -0.42,-0.04 -0.06,-0.01 -0.42,-0.04 -0.06,-0.01 -0.42,-0.04 -0.05,-0.01 -0.42,-0.04 h -0.05 l -0.42,-0.04 -0.05,-0.01 -0.42,-0.05 h -0.06 l -0.42,-0.05 -0.06,-0.01 -0.42,-0.06 -0.05,-0.01 -0.42,-0.06 -0.05,-0.01 -0.42,-0.06 -0.05,-0.01 -0.42,-0.06 -0.05,-0.01 -0.41,-0.07 H 163 l -0.42,-0.08 -0.054,-0.01 -0.41,-0.08 -0.05,-0.01 -0.41,-0.08 -0.05,-0.01 -0.41,-0.08 -0.06,-0.01 -0.416,-0.08 -0.05,-0.01 -0.41,-0.09 -0.06,-0.02 -0.41,-0.09 -0.05,-0.01 -0.41,-0.1 -0.056,-0.02 -0.41,-0.1 -0.05,-0.02 -0.41,-0.11 -0.05,-0.01 -0.41,-0.11 -0.05,-0.02 -0.41,-0.11 -0.05,-0.02 -0.41,-0.11 -0.05,-0.02 -0.41,-0.12 -0.06,-0.02 -0.41,-0.12 -0.05,-0.02 -0.41,-0.12 -0.05,-0.02 -0.41,-0.12 -0.05,-0.01 -0.398,-0.13 -0.04,-0.01 -0.21,-0.07 h -0.027 l -0.2,-0.06 -0.03,-0.01 -0.2,-0.07 -0.03,-0.01 -0.2,-0.07 -0.03,-0.01 -0.2,-0.07 -0.03,-0.01 -0.2,-0.07 -0.03,-0.01 -0.2,-0.07 -0.02,-0.01 -0.2,-0.07 -0.02,-0.01 -0.2,-0.07 -0.02,-0.01 -0.2,-0.08 -0.03,-0.01 -0.2,-0.08 -0.03,-0.01 -0.2,-0.08 -0.02,-0.01 -0.2,-0.08 -0.03,-0.01 -0.2,-0.08 -0.02,-0.01 -0.2,-0.08 -0.03,-0.01 -0.2,-0.08 -0.02,-0.01 -0.2,-0.08 -0.02,-0.01 -0.2,-0.08 -0.03,-0.01 -0.2,-0.08 -0.03,-0.01 -0.2,-0.08 -0.03,-0.01 -0.2,-0.08 -0.03,-0.01 -0.2,-0.08 -0.02,-0.01 -0.2,-0.09 -0.03,-0.01 -0.19,-0.09 -0.02,-0.01 -0.2,-0.09 -0.02,-0.01 -0.2,-0.09 -0.02,-0.01 -0.2,-0.08 -0.03,-0.01 -0.19,-0.09 -0.03,-0.01 -0.2,-0.09 -0.03,-0.01 -0.19,-0.09 -0.02,-0.02 -0.19,-0.09 -0.02,-0.01 -0.19,-0.09 -0.02,-0.01 -0.2,-0.09 -0.02,-0.02 -0.2,-0.1 -0.02,-0.02 -0.19,-0.09 -0.03,-0.01 -0.2,-0.09 -0.02,-0.02 -0.19,-0.1 -0.03,-0.01 -0.2,-0.1 -0.02,-0.01 -0.19,-0.1 -0.03,-0.01 -0.19,-0.1 -0.02,-0.01 -0.19,-0.1 -0.03,-0.02 -0.19,-0.1 -0.02,-0.01 -0.19,-0.1 -0.02,-0.01 -0.19,-0.1 -0.03,-0.02 -0.19,-0.1 -0.02,-0.01 -0.19,-0.11 -0.03,-0.02 -0.19,-0.1 -0.03,-0.01 -0.19,-0.1 -0.03,-0.01 -0.19,-0.1 -0.03,-0.01 -0.19,-0.11 -0.03,-0.01 -0.18,-0.11 -0.03,-0.01 -0.18,-0.11 -0.01,-0.01 -104.8,-61.17 -0.01,-0.01 -0.22,-0.13 -0.02,-0.01 -0.22,-0.13 -0.03,-0.01 -0.23,-0.13 -0.03,-0.01 -0.22,-0.14 -0.02,-0.01 -0.22,-0.14 -0.02,-0.02 -0.22,-0.14 -0.02,-0.02 -0.22,-0.14 -0.03,-0.01 -0.22,-0.13 -0.03,-0.02 -0.22,-0.14 -0.02,-0.02 -0.22,-0.14 H 36 l -0.22,-0.14 -0.03,-0.02 -0.22,-0.14 -0.02,-0.02 -0.22,-0.14 -0.028,-0.02 -0.22,-0.15 -0.03,-0.02 -0.22,-0.15 -0.02,-0.02 -0.22,-0.14 -0.02,-0.02 -0.22,-0.15 -0.02,-0.02 -0.22,-0.15 -0.02,-0.02 -0.21,-0.15 -0.03,-0.02 -0.215,-0.15 -0.02,-0.02 -0.21,-0.15 -0.025,-0.02 -0.21,-0.15 -0.027,-0.02 -0.21,-0.15 -0.02,-0.01 -0.21,-0.15 -0.02,-0.02 -0.207,-0.15 -0.02,-0.02 -0.206,-0.15 -0.03,-0.01 -0.21,-0.15 -0.02,-0.02 -0.21,-0.16 -0.02,-0.02 -0.21,-0.15 -0.026,-0.02 -0.21,-0.16 -0.026,-0.02 -0.2,-0.16 -0.02,-0.02 -0.2,-0.16 -0.02,-0.01 -0.2,-0.16 -0.02,-0.02 -0.2,-0.16 -0.02,-0.02 -0.2,-0.16 -0.02,-0.02 -0.2,-0.16 -0.02,-0.02 -0.2,-0.16 -0.02,-0.02 -0.2,-0.16 -0.02,-0.02 -0.2,-0.17 -0.02,-0.01 -0.2,-0.16 -0.02,-0.02 -0.194,-0.16 -0.02,-0.02 -0.2,-0.17 -0.02,-0.02 -0.2,-0.16 -0.02,-0.02 -0.2,-0.17 -0.02,-0.01 -0.196,-0.16 -0.02,-0.02 -0.19,-0.16 -0.02,-0.02 -0.19,-0.17 -0.02,-0.02 -0.19,-0.17 -0.02,-0.02 -0.19,-0.17 -0.02,-0.02 -0.19,-0.17 -0.02,-0.02 -0.19,-0.17 -0.02,-0.02 -0.19,-0.18 -0.02,-0.01 -0.19,-0.17 -0.03,-0.02 -0.185,-0.18 -0.02,-0.02 -0.19,-0.17 -0.02,-0.02 -0.186,-0.18 -0.02,-0.02 -0.18,-0.18 -0.02,-0.02 -0.18,-0.18 -0.02,-0.02 -0.19,-0.18 -0.02,-0.02 -0.19,-0.18 -0.02,-0.01 -0.18,-0.18 -0.02,-0.02 -0.18,-0.18 -0.02,-0.02 -0.18,-0.18 -0.02,-0.02 -0.18,-0.18 -0.02,-0.02 -0.18,-0.18 -0.02,-0.02 -0.18,-0.18 -0.02,-0.02 -0.17,-0.18 -0.02,-0.02 -0.18,-0.18 -0.02,-0.02 -0.18,-0.19 -0.02,-0.02 -0.17,-0.19 -0.02,-0.02 -0.17,-0.19 -0.02,-0.02 -0.18,-0.19 -0.02,-0.02 -0.17,-0.19 -0.02,-0.02 -0.17,-0.19 -0.02,-0.02 -0.17,-0.19 -0.02,-0.02 -0.17,-0.19 -0.02,-0.02 -0.17,-0.19 -0.01,-0.02 -0.16,-0.19 -0.02,-0.02 -0.17,-0.19 -0.02,-0.02 -0.18,-0.2 -0.02,-0.02 -0.17,-0.19 -0.02,-0.02 -0.17,-0.2 -0.02,-0.02 -0.16,-0.19 -0.01,-0.02 -0.16,-0.19 -0.02,-0.02 -0.16,-0.2 -0.02,-0.02 -0.17,-0.2 -0.02,-0.02 -0.16,-0.19 -0.02,-0.02 -0.17,-0.19 -0.02,-0.02 -0.16,-0.19 -0.02,-0.02 -0.16,-0.2 -0.02,-0.02 -0.16,-0.2 -0.02,-0.02 -0.16,-0.2 -0.02,-0.02 -0.16,-0.2 -0.02,-0.02 -0.16,-0.2 -0.01,-0.02 -0.15,-0.2 -0.02,-0.02 -0.15,-0.2 -0.01,-0.02 -0.15,-0.2 -0.02,-0.02 -0.15,-0.21 -0.02,-0.02 -0.15,-0.2 -0.02,-0.02 -0.15,-0.2 -0.01,-0.02 -0.15,-0.21 -0.01,-0.02 -0.15,-0.21 -0.01,-0.02 -0.15,-0.2 -0.01,-0.02 -0.15,-0.2 -0.02,-0.02 -0.15,-0.21 -0.02,-0.02 -0.15,-0.21 -0.02,-0.03 -0.14,-0.21 -0.02,-0.02 -0.14,-0.21 -0.02,-0.02 -0.14,-0.21 -0.02,-0.02 -0.14,-0.21 -0.01,-0.02 -0.14,-0.21 -0.02,-0.03 -0.14,-0.21 -0.02,-0.02 -0.14,-0.21 -0.02,-0.02 -0.14,-0.21 -0.02,-0.02 -0.14,-0.21 -0.02,-0.02 -0.13,-0.21 -0.01,-0.02 -0.13,-0.21 -0.02,-0.03 -0.14,-0.21 -0.02,-0.03 -0.14,-0.21 -0.01,-0.02 -0.14,-0.22 -0.01,-0.03 -0.13,-0.21 -0.02,-0.02 -0.13,-0.21 -0.02,-0.02 -0.13,-0.22 -0.02,-0.03 -0.13,-0.21 -0.01,-0.02 -0.13,-0.22 -0.01,-0.02 -0.13,-0.21 -0.02,-0.03 -0.13,-0.22 -0.02,-0.03 -0.13,-0.22 -0.02,-0.03 -0.12,-0.22 -0.02,-0.02 -0.13,-0.22 -0.01,-0.02 -0.12,-0.22 -0.01,-0.02 -0.12,-0.22 -0.01,-0.03 -0.12,-0.22 -0.02,-0.03 -0.12,-0.22 -0.01,-0.03 -0.12,-0.23 -0.01,-0.02 -0.12,-0.22 -0.01,-0.03 -0.12,-0.22 -0.01,-0.03 -0.12,-0.22 -0.01,-0.03 -0.11,-0.23 -0.01,-0.02 -0.12,-0.23 -0.01,-0.03 -0.12,-0.23 -0.02,-0.02 -0.11,-0.23 -0.01,-0.02 -0.11,-0.22 -0.01,-0.03 -0.11,-0.23 v 0.01 l -0.11,-0.23 -0.02,-0.03 -0.11,-0.23 -0.01,-0.03 -0.11,-0.22 -0.01,-0.03 -0.11,-0.23 -0.01,-0.02 -0.11,-0.23 -0.01,-0.02 -0.1,-0.23 -0.01,-0.02 -0.11,-0.23 -0.01,-0.02 -0.11,-0.23 -0.01,-0.02 -0.11,-0.23 -0.01,-0.03 -0.1,-0.23 -0.01,-0.02 -0.11,-0.23 -0.01,-0.03 -0.11,-0.23 -0.01,-0.02 -0.1,-0.23 -0.01,-0.02 -0.1,-0.23 -0.01,-0.03 -0.1,-0.23 -0.01,-0.02 -0.09,-0.23 -0.01,-0.02 -0.1,-0.23 -0.01,-0.03 -0.09,-0.24 -0.01,-0.02 -0.1,-0.23 -0.01,-0.03 -0.09,-0.22 -0.01,-0.03 -0.1,-0.24 -0.01,-0.02 -0.09,-0.24 -0.01,-0.03 -0.09,-0.24 -0.01,-0.02 -0.09,-0.24 -0.01,-0.03 -0.09,-0.24 -0.01,-0.02 -0.09,-0.24 -0.01,-0.02 -0.08,-0.24 -0.01,-0.03 -0.09,-0.24 -0.01,-0.02 -0.08,-0.24 -0.01,-0.03 -0.08,-0.24 -0.01,-0.03 -0.09,-0.24 -0.01,-0.03 -0.08,-0.24 -0.01,-0.02 -0.08,-0.24 -0.01,-0.02 -0.08,-0.24 -0.01,-0.03 -0.08,-0.24 -0.01,-0.03 -0.08,-0.24 -0.01,-0.03 -0.08,-0.24 -0.01,-0.03 -0.08,-0.24 L 7,292 6.93,291.76 6.92,291.74 6.84,291.49 6.83,291.46 6.76,291.21 6.75,291.18 6.68,290.94 6.67,290.91 6.6,290.67 6.59,290.64 6.52,290.39 6.51,290.36 6.44,290.11 6.43,290.09 6.36,289.84 6.35,289.83 6.28,289.58 6.27,289.56 6.21,289.32 6.2,289.3 6.14,289.06 v -0.02 l -0.07,-0.25 v -0.03 L 6.01,288.52 6,288.49 5.94,288.25 5.93,288.22 5.87,287.97 H 5.88 L 5.82,287.72 5.81,287.7 5.75,287.45 5.74,287.43 5.68,287.18 5.67,287.16 5.61,286.91 5.62,286.9 5.56,286.65 5.55,286.62 5.49,286.37 5.48,286.34 5.43,286.09 5.42,286.06 5.36,285.81 5.35,285.79 5.3,285.54 5.29,285.51 5.24,285.26 5.23,285.23 5.18,284.98 5.13,284.73 v -0.03 l -0.05,-0.26 v -0.03 l -0.05,-0.25 -0.01,-0.03 -0.06,-0.24 v -0.03 L 4.91,283.59 4.9,283.56 4.85,283.3 4.84,283.27 4.8,283.02 4.79,282.99 4.75,282.74 v -0.03 l -0.04,-0.25 v -0.03 L 4.67,282.18 4.66,282.15 4.62,281.9 v 0.01 l -0.04,-0.25 v -0.02 l -0.04,-0.25 v -0.03 L 4.5,281.11 v -0.03 l -0.04,-0.25 v -0.02 l -0.03,-0.26 v -0.03 L 4.4,280.27 v -0.02 l -0.04,-0.26 -0.01,-0.03 -0.03,-0.25 v -0.03 l -0.03,-0.26 -0.01,-0.03 -0.03,-0.26 v -0.03 l -0.03,-0.26 -0.01,-0.03 -0.03,-0.26 v -0.03 l -0.03,-0.26 -0.01,-0.02 -0.03,-0.26 -0.02,-0.26 v -0.03 L 4.06,277.43 4.05,277.4 4.02,277.14 v -0.03 L 4,276.85 3.99,276.82 3.97,276.56 v -0.03 l -0.02,-0.26 v -0.03 l -0.02,-0.26 -0.02,-0.26 v -0.03 l -0.02,-0.26 v -0.03 l -0.02,-0.26 v -0.323 l -0.01,-0.26 v -0.03 l -0.01,-0.26 v -0.03 l -0.01,-0.26 -0.01,-0.03 -0.01,-0.26 v -0.28 l -0.01,-0.26 v -0.03 l -0.01,-0.26 v -126.6 l 0.01,-0.25 v -0.32 l 0.01,-0.26 v -0.92 l 0.01,-0.26 v -0.02 l 0.01,-0.26 v -0.03 l 0.01,-0.26 v -0.03 l 0.01,-0.26 v -0.02 l 0.01,-0.26 v -0.03 l 0.01,-0.26 v -0.03 l 0.02,-0.27 v -0.03 l 0.02,-0.26 v -0.02 l 0.01,-0.26 v -0.03 l 0.02,-0.26 v -0.03 l 0.01,-0.26 v -0.03 l 0.01,-0.26 v -0.03 l 0.02,-0.26 v -0.03 l 0.02,-0.26 v -0.03 l 0.03,-0.26 v -0.03 l 0.02,-0.26 0.01,-0.02 0.02,-0.26 v -0.02 l 0.03,-0.26 v -0.02 l 0.03,-0.26 0.01,-0.03 0.03,-0.26 v -0.03 l 0.03,-0.26 v -0.02 l 0.03,-0.26 v -0.02 l 0.03,-0.26 0.01,-0.03 0.03,-0.26 v -0.03 l 0.03,-0.25 v -0.03 l 0.03,-0.26 v -0.03 l 0.03,-0.26 0.01,-0.03 0.03,-0.25 v -0.03 l 0.04,-0.26 v -0.03 l 0.03,-0.26 0.01,-0.03 0.03,-0.25 0.01,-0.03 0.04,-0.26 0.01,-0.02 0.04,-0.26 v -0.02 l 0.04,-0.26 v -0.02 l 0.04,-0.25 0.01,-0.03 0.04,-0.25 v -0.03 l 0.07,-0.26 0.01,-0.03 0.04,-0.25 v -0.03 l 0.05,-0.25 v -0.02 l 0.05,-0.25 v -0.02 l 0.05,-0.26 0.01,-0.02 0.05,-0.25 0.01,-0.02 0.05,-0.25 0.01,-0.03 0.05,-0.25 0.01,-0.03 0.05,-0.25 v -0.03 l 0.05,-0.25 v -0.02 l 0.05,-0.25 0.01,-0.02 0.05,-0.25 0.01,-0.02 0.06,-0.25 v -0.03 l 0.06,-0.25 0.01,-0.03 0.05,-0.25 0.01,-0.03 0.06,-0.25 v -0.03 l 0.06,-0.25 0.01,-0.03 0.06,-0.25 v -0.03 l 0.06,-0.25 0.01,-0.02 0.06,-0.25 v -0.02 l 0.06,-0.25 0.01,-0.03 0.07,-0.25 v -0.02 l 0.07,-0.25 v -0.02 l 0.07,-0.25 0.01,-0.03 0.07,-0.25 v -0.03 l 0.07,-0.25 0.01,-0.03 0.07,-0.24 0.01,-0.02 0.07,-0.25 0.01,-0.025 0.07,-0.25 0.01,-0.03 0.07,-0.244 0.01,-0.02 0.08,-0.25 0.01,-0.02 0.07,-0.24 0.01,-0.02 0.07,-0.243 0.01,-0.02 0.07,-0.248 0.01,-0.03 0.08,-0.244 0.01,-0.03 0.08,-0.24 v -0.02 l 0.08,-0.24 v -0.03 l 0.08,-0.24 0.01,-0.02 0.08,-0.24 0.01,-0.03 0.08,-0.24 0.01,-0.03 0.08,-0.24 0.01,-0.03 0.08,-0.24 0.01,-0.02 0.09,-0.24 0.01,-0.02 0.08,-0.24 0.01,-0.025 0.08,-0.24 0.01,-0.02 0.09,-0.24 0.01,-0.02 0.09,-0.24 v -0.02 l 0.09,-0.24 0.01,-0.02 0.09,-0.24 0.01,-0.03 0.09,-0.24 0.01,-0.02 0.09,-0.24 0.01,-0.03 0.1,-0.23 0.01,-0.02 0.1,-0.24 0.01,-0.02 0.1,-0.24 0.01,-0.03 0.1,-0.24 0.01,-0.03 0.1,-0.24 0.01,-0.03 0.1,-0.24 0.01,-0.03 0.1,-0.24 0.01,-0.03 0.1,-0.24 0.01,-0.025 0.1,-0.23 0.01,-0.03 0.1,-0.23 0.01,-0.03 0.1,-0.24 0.01,-0.02 0.11,-0.24 0.01,-0.02 0.11,-0.23 0.01,-0.02 0.1,-0.23 0.01,-0.03 0.11,-0.23 0.01,-0.02 0.11,-0.23 0.01,-0.02 0.11,-0.23 0.01,-0.02 0.11,-0.23 0.01,-0.03 0.11,-0.23 0.01,-0.02 0.11,-0.23 0.01,-0.03 0.11,-0.23 0.01,-0.02 0.11,-0.23 0.01,-0.02 0.11,-0.23 0.01,-0.02 0.11,-0.23 0.01,-0.02 0.12,-0.22 0.01,-0.02 0.12,-0.23 0.02,-0.03 0.12,-0.23 0.01,-0.02 0.12,-0.23 0.01,-0.03 0.12,-0.22 0.01,-0.02 0.12,-0.22 0.01,-0.02 0.12,-0.22 0.01,-0.03 0.12,-0.22 0.02,-0.02 0.12,-0.22 0.01,-0.03 0.12,-0.22 0.02,-0.02 0.12,-0.22 0.01,-0.02 0.12,-0.22 0.02,-0.03 0.13,-0.22 0.01,-0.02 0.12,-0.22 0.01,-0.02 0.13,-0.22 0.01,-0.02 0.13,-0.22 0.01,-0.02 0.13,-0.22 0.02,-0.02 0.13,-0.22 0.01,-0.02 0.13,-0.22 0.02,-0.02 0.13,-0.22 0.01,-0.02 0.13,-0.22 0.02,-0.02 0.13,-0.22 0.01,-0.02 0.14,-0.22 0.02,-0.03 0.14,-0.22 0.01,-0.02 0.13,-0.21 0.02,-0.02 0.14,-0.21 0.02,-0.02 0.13,-0.22 0.01,-0.02 0.14,-0.21 0.01,-0.02 0.14,-0.21 0.02,-0.02 0.14,-0.22 0.02,-0.02 0.14,-0.21 0.01,-0.03 0.14,-0.21 0.01,-0.02 0.14,-0.21 0.01,-0.02 0.15,-0.21 0.02,-0.02 0.14,-0.21 0.02,-0.02 0.15,-0.21 0.01,-0.02 0.15,-0.21 0.01,-0.02 0.15,-0.21 0.01,-0.02 0.15,-0.21 0.02,-0.02 0.15,-0.21 0.01,-0.02 0.15,-0.21 0.02,-0.02 0.15,-0.2 0.01,-0.02 0.15,-0.21 0.02,-0.02 0.15,-0.2 0.02,-0.02 0.15,-0.2 0.02,-0.02 0.15,-0.2 0.02,-0.02 0.15,-0.2 0.01,-0.02 0.15,-0.2 0.02,-0.02 0.16,-0.2 0.02,-0.02 0.16,-0.2 0.02,-0.02 0.16,-0.2 0.02,-0.02 0.16,-0.2 0.02,-0.02 0.16,-0.2 0.02,-0.03 0.16,-0.2 0.01,-0.02 0.16,-0.2 0.02,-0.02 0.16,-0.2 0.02,-0.02 0.16,-0.19 0.02,-0.02 0.16,-0.2 0.02,-0.02 0.16,-0.2 0.02,-0.02 0.17,-0.19 0.02,-0.02 0.16,-0.2 0.02,-0.02 0.16,-0.19 0.02,-0.02 0.16,-0.2 0.02,-0.02 0.17,-0.2 0.01,-0.02 0.17,-0.19 0.02,-0.02 0.17,-0.19 0.02,-0.02 0.17,-0.19 0.02,-0.02 0.17,-0.19 0.01,-0.02 0.17,-0.19 0.02,-0.02 0.17,-0.19 0.02,-0.02 0.17,-0.19 0.01,-0.02 0.17,-0.19 0.02,-0.02 0.18,-0.19 0.01,-0.02 0.18,-0.19 0.02,-0.02 0.19,-0.18 0.02,-0.02 0.18,-0.19 0.02,-0.02 0.18,-0.19 0.02,-0.02 0.18,-0.18 0.02,-0.02 0.18,-0.18 0.02,-0.02 0.18,-0.18 0.02,-0.02 0.19,-0.18 0.02,-0.02 0.18,-0.18 0.02,-0.02 0.18,-0.18 0.02,-0.02 0.18,-0.18 0.02,-0.02 0.18,-0.18 0.02,-0.02 0.18,-0.18 0.02,-0.02 0.18,-0.18 0.02,-0.02 0.18,-0.18 0.02,-0.02 0.19,-0.17 0.02,-0.02 0.19,-0.17 0.02,-0.02 0.19,-0.18 0.02,-0.02 0.19,-0.18 0.02,-0.01 0.19,-0.17 0.02,-0.01 0.19,-0.17 0.02,-0.02 0.19,-0.17 0.02,-0.02 0.19,-0.17 0.02,-0.02 0.19,-0.17 0.02,-0.01 0.2,-0.17 0.02,-0.02 0.2,-0.17 0.02,-0.02 0.2,-0.17 0.02,-0.02 0.2,-0.16 0.02,-0.02 0.2,-0.16 0.02,-0.02 0.19,-0.16 0.02,-0.02 0.2,-0.16 0.02,-0.02 0.2,-0.16 0.02,-0.01 0.2,-0.16 0.02,-0.02 0.2,-0.16 0.02,-0.02 0.2,-0.16 0.02,-0.02 0.21,-0.16 0.02,-0.02 0.2,-0.16 0.02,-0.02 0.21,-0.16 0.02,-0.02 0.21,-0.16 0.02,-0.02 0.2,-0.16 0.02,-0.01 0.21,-0.16 0.02,-0.02 0.2,-0.16 0.02,-0.02 0.21,-0.15 0.02,-0.02 0.21,-0.16 0.02,-0.02 0.21,-0.15 0.02,-0.01 0.21,-0.15 0.03,-0.02 0.21,-0.15 0.02,-0.01 0.21,-0.15 0.02,-0.02 0.21,-0.16 0.02,-0.01 0.22,-0.15 0.02,-0.02 0.21,-0.15 0.03,-0.01 0.21,-0.15 0.02,-0.01 0.21,-0.15 0.02,-0.01 0.22,-0.15 0.02,-0.02 0.21,-0.15 0.02,-0.01 0.22,-0.14 0.02,-0.01 0.21,-0.15 0.03,-0.02 0.22,-0.14 0.02,-0.02 0.22,-0.15 0.02,-0.02 0.22,-0.14 0.03,-0.01 0.22,-0.14 0.02,-0.02 0.22,-0.14 0.02,-0.01 0.22,-0.14 0.02,-0.01 0.22,-0.14 0.02,-0.01 0.22,-0.14 0.03,-0.01 0.22,-0.13 h 0.01 l 100.51,-62 0.01,-0.01 0.21,-0.13 0.02,-0.01 0.22,-0.14 0.03,-0.02 0.22,-0.13 0.03,-0.02 0.22,-0.13 0.03,-0.02 0.22,-0.13 0.03,-0.01 0.23,-0.13 0.02,-0.02 0.22,-0.13 0.03,-0.01 0.22,-0.13 0.02,-0.01 0.23,-0.12 0.02,-0.02 0.23,-0.12 0.02,-0.02 0.22,-0.12 0.03,-0.01 0.23,-0.12 0.02,-0.02 0.22,-0.12 0.03,-0.02 0.22,-0.12 0.03,-0.02 0.22,-0.12 0.02,-0.02 0.23,-0.12 0.02,-0.01 0.22,-0.12 0.03,-0.01 0.22,-0.12 0.03,-0.01 0.23,-0.12 0.03,-0.01 0.23,-0.12 0.02,-0.01 0.23,-0.11 0.03,-0.01 0.23,-0.11 0.03,-0.01 0.22,-0.11 0.03,-0.01 0.23,-0.11 0.02,-0.01 0.23,-0.11 0.03,-0.01 0.23,-0.11 0.03,-0.02 0.23,-0.11 0.03,-0.01 0.23,-0.11 0.03,-0.01 0.23,-0.1 0.03,-0.01 0.23,-0.1 0.02,-0.02 0.23,-0.1 0.02,-0.01 0.23,-0.1 0.03,-0.02 0.23,-0.1 0.03,-0.01 0.23,-0.1 0.03,-0.01 0.23,-0.1 0.03,-0.01 0.23,-0.1 0.03,-0.01 0.23,-0.1 0.03,-0.01 0.23,-0.09 0.03,-0.01 0.23,-0.1 0.03,-0.01 0.24,-0.1 0.03,-0.01 0.24,-0.1 0.03,-0.02 0.23,-0.09 0.02,-0.01 0.24,-0.09 0.03,-0.01 0.23,-0.09 0.02,-0.01 0.24,-0.09 0.03,-0.01 0.24,-0.08 0.03,-0.01 0.24,-0.09 0.03,-0.01 0.24,-0.09 0.03,-0.01 0.24,-0.08 0.03,-0.01 0.24,-0.08 0.03,-0.01 0.23,-0.08 0.03,-0.01 0.24,-0.08 0.03,-0.01 0.23,-0.08 0.03,-0.01 0.24,-0.08 0.02,-0.01 0.24,-0.08 0.03,-0.01 0.24,-0.08 0.03,-0.01 0.24,-0.08 0.03,-0.01 0.24,-0.07 0.02,-0.01 0.24,-0.07 0.03,-0.01 0.24,-0.07 h 0.03 l 0.24,-0.07 0.03,-0.01 0.24,-0.07 0.02,-0.01 0.24,-0.07 0.02,-0.01 0.24,-0.07 0.03,-0.01 0.24,-0.07 0.03,-0.01 0.24,-0.07 0.03,-0.01 0.24,-0.06 0.03,-0.01 0.24,-0.06 0.02,-0.01 0.24,-0.07 0.024,-0.01 0.25,-0.06 h 0.02 l 0.24,-0.07 h 0.03 l 0.247,-0.06 0.03,-0.01 0.25,-0.06 0.03,-0.01 0.24,-0.06 h 0.03 l 0.25,-0.06 h 0.03 l 0.24,-0.06 0.03,-0.01 0.24,-0.05 0.03,-0.01 0.24,-0.06 0.03,-0.01 0.24,-0.05 h 0.03 l 0.24,-0.05 0.03,-0.01 0.24,-0.05 h 0.02 l 0.24,-0.05 0.03,-0.01 0.25,-0.05 h 0.02 l 0.25,-0.05 0.02,-0.01 0.25,-0.05 0.03,-0.01 0.25,-0.05 0.03,-0.01 0.25,-0.04 h 0.03 l 0.24,-0.04 0.03,-0.01 0.25,-0.05 0.03,-0.01 0.25,-0.04 h 0.03 l 0.24,-0.04 0.03,-0.01 0.25,-0.04 0.03,-0.01 0.24,-0.04 h 0.02 l 0.24,-0.04 h 0.03 l 0.25,-0.04 0.03,-0.01 0.25,-0.04 h 0.03 l 0.25,-0.04 h 0.03 l 0.25,-0.04 h 0.03 l 0.25,-0.03 h 0.03 l 0.24,-0.03 h 0.03 l 0.25,-0.03 0.03,-0.01 0.25,-0.03 0.02,-0.01 0.25,-0.02 h 0.03 l 0.24,-0.03 h 0.03 l 0.24,-0.03 h 0.03 l 0.25,-0.03 h 0.03 l 0.25,-0.03 h 0.03 l 0.24,-0.02 h 0.03 l 0.25,-0.03 0.03,-0.01 0.25,-0.02 0.03,-0.01 0.25,-0.02 h 0.03 l 0.246,-0.02 h 0.03 l 0.25,-0.02 h 0.03 l 0.25,-0.01 0.03,-0.01 0.25,-0.02 0.02,-0.01 0.25,-0.01 h 0.03 l 0.25,-0.02 h 0.02 l 0.25,-0.01 h 0.03 l 0.25,-0.01 h 0.03 l 0.25,-0.01 h 0.03 l 0.25,-0.01 0.03,-0.01 0.25,-0.01 h 0.03 l 0.25,-0.01 h 0.03 l 0.25,-0.01 h 0.03 l 0.25,-0.01 h 0.03 l 0.25,-0.01 h 0.02 l 0.25,-0.01 h 0.31 l 0.25,-0.01 h 0.58 z m -0.23,27 h -0.164 l -0.164,0.002 h -0.163 l -0.17,0.004 -0.17,0.004 -0.17,0.005 -0.17,0.01 -0.17,0.01 -0.17,0.01 -0.16,0.01 -0.17,0.01 -0.16,0.01 -0.16,0.01 -0.16,0.01 -0.17,0.01 -0.16,0.01 -0.17,0.02 -0.17,0.02 -0.16,0.02 -0.17,0.02 -0.17,0.02 -0.17,0.02 -0.16,0.02 -0.17,0.02 -0.16,0.02 -0.16,0.02 -0.17,0.02 -0.16,0.02 -0.16,0.02 -0.16,0.02 -0.16,0.02 -0.17,0.02 -0.16,0.03 -0.16,0.02 -0.17,0.03 -0.16,0.03 -0.16,0.03 -0.16,0.03 -0.16,0.03 -0.16,0.03 -0.16,0.03 -0.16,0.02 -0.17,0.03 -0.16,0.03 -0.17,0.03 -0.16,0.03 -0.16,0.03 -0.16,0.03 -0.16,0.04 -0.16,0.04 -0.16,0.04 -0.16,0.03 -0.16,0.03 -0.16,0.04 -0.16,0.04 -0.16,0.04 -0.16,0.04 -0.16,0.04 -0.16,0.04 -0.16,0.04 -0.16,0.04 -0.16,0.04 -0.16,0.04 -0.16,0.05 -0.16,0.04 -0.16,0.05 -0.15,0.05 -0.16,0.05 -0.16,0.05 -0.16,0.05 -0.16,0.05 -0.16,0.05 -0.15,0.05 -0.16,0.05 -0.16,0.06 -0.16,0.05 -0.16,0.05 -0.16,0.06 -0.16,0.05 -0.16,0.05 -0.15,0.05 -0.16,0.06 -0.16,0.06 -0.16,0.06 -0.15,0.06 -0.16,0.06 -0.15,0.06 -0.15,0.06 -0.16,0.07 -0.16,0.06 -0.16,0.06 -0.16,0.06 -0.15,0.07 -0.15,0.06 -0.16,0.07 -0.15,0.07 -0.15,0.07 -0.15,0.07 -0.16,0.07 -0.15,0.07 -0.16,0.07 -0.15,0.07 -0.15,0.07 -0.15,0.07 -0.16,0.07 -0.15,0.07 -0.15,0.07 -0.15,0.08 -0.15,0.08 -0.15,0.07 -0.15,0.08 -0.15,0.07 -0.15,0.08 -0.15,0.08 -0.15,0.08 -0.15,0.08 -0.15,0.08 -0.15,0.09 -0.14,0.08 -0.15,0.08 -0.14,0.08 -0.15,0.09 -0.15,0.09 -0.15,0.09 -0.14,0.08 -0.15,0.09 -0.14,0.09 -0.15,0.09 -0.15,0.09 -0.16,0.1 -100.4,61.88 -0.17,0.11 -0.16,0.1 -0.15,0.1 -0.15,0.1 -0.15,0.1 -0.15,0.1 -0.15,0.1 -0.15,0.1 -0.15,0.1 -0.15,0.1 -0.15,0.1 -0.15,0.1 -0.15,0.11 -0.14,0.1 -0.14,0.1 -0.15,0.1 -0.14,0.1 -0.14,0.1 -0.14,0.1 -0.14,0.1 -0.14,0.1 -0.14,0.1 -0.14,0.11 -0.14,0.1 -0.14,0.11 -0.14,0.11 -0.14,0.11 -0.14,0.11 -0.14,0.11 -0.14,0.11 -0.13,0.11 -0.14,0.11 -0.14,0.11 -0.13,0.11 -0.14,0.11 -0.14,0.11 -0.13,0.11 -0.14,0.11 -0.13,0.11 -0.13,0.11 -0.13,0.12 -0.13,0.12 -0.13,0.11 -0.13,0.11 -0.13,0.12 -0.13,0.12 -0.13,0.12 -0.13,0.12 -0.13,0.12 -0.13,0.12 -0.13,0.12 -0.13,0.12 -0.13,0.12 -0.13,0.12 -0.13,0.12 -0.12,0.12 -0.13,0.12 -0.12,0.13 -0.13,0.12 -0.12,0.13 -0.12,0.12 -0.12,0.13 -0.12,0.12 -0.12,0.13 -0.12,0.13 -0.13,0.13 -0.12,0.12 -0.12,0.13 -0.12,0.13 -0.12,0.13 -0.11,0.13 -0.12,0.13 -0.12,0.13 -0.12,0.13 -0.12,0.14 -0.12,0.13 -0.11,0.13 -0.11,0.13 -0.12,0.14 -0.11,0.13 -0.12,0.13 -0.11,0.14 -0.11,0.13 -0.11,0.14 -0.11,0.14 -0.11,0.14 -0.11,0.14 -0.11,0.14 -0.11,0.14 -0.1,0.14 -0.11,0.14 -0.11,0.14 -0.11,0.14 -0.11,0.14 -0.1,0.14 -0.1,0.14 -0.1,0.14 -0.1,0.15 -0.1,0.14 -0.1,0.14 -0.1,0.15 -0.1,0.14 -0.1,0.14 -0.1,0.14 -0.1,0.14 -0.09,0.15 -0.1,0.15 -0.1,0.14 -0.1,0.15 -0.09,0.15 -0.09,0.14 -0.09,0.15 -0.09,0.15 -0.09,0.15 -0.09,0.15 -0.1,0.15 -0.1,0.15 -0.09,0.15 -0.09,0.15 -0.09,0.15 -0.09,0.15 -0.09,0.15 -0.09,0.15 -0.09,0.15 -0.09,0.15 -0.09,0.15 -0.09,0.15 -0.09,0.16 -0.09,0.15 -0.09,0.15 -0.09,0.16 -0.08,0.15 -0.08,0.16 -0.08,0.16 -0.08,0.16 -0.08,0.15 -0.08,0.15 -0.08,0.16 -0.08,0.15 -0.08,0.16 -0.07,0.15 -0.08,0.16 -0.08,0.16 -0.08,0.16 -0.08,0.16 -0.08,0.16 -0.07,0.16 -0.07,0.16 -0.07,0.16 -0.07,0.16 -0.07,0.16 -0.07,0.16 -0.07,0.16 -0.07,0.16 -0.07,0.16 -0.06,0.16 -0.07,0.16 -0.07,0.17 -0.07,0.16 -0.07,0.16 -0.07,0.16 -0.06,0.16 -0.07,0.17 -0.07,0.16 -0.06,0.16 -0.06,0.17 -0.06,0.16 -0.06,0.17 -0.06,0.16 -0.06,0.17 -0.06,0.17 -0.06,0.17 -0.05,0.17 -0.06,0.16 -0.06,0.17 -0.05,0.17 -0.05,0.16 -0.05,0.17 -0.06,0.17 -0.05,0.16 -0.05,0.16 -0.05,0.17 -0.06,0.17 -0.05,0.17 -0.05,0.16 -0.05,0.17 -0.05,0.17 -0.05,0.17 -0.05,0.17 -0.05,0.17 -0.04,0.17 -0.04,0.17 -0.05,0.17 -0.04,0.17 -0.05,0.17 -0.04,0.17 -0.04,0.17 -0.04,0.18 -0.04,0.17 -0.04,0.17 -0.04,0.17 -0.04,0.17 -0.04,0.17 -0.04,0.17 -0.03,0.17 -0.04,0.17 -0.03,0.17 -0.03,0.18 -0.03,0.18 -0.03,0.18 -0.03,0.18 -0.03,0.17 -0.03,0.17 -0.03,0.18 -0.03,0.18 -0.03,0.17 -0.03,0.17 -0.03,0.17 -0.03,0.18 -0.02,0.18 -0.02,0.18 -0.02,0.17 -0.03,0.18 -0.03,0.17 -0.02,0.18 -0.02,0.18 -0.02,0.18 -0.02,0.18 -0.02,0.18 -0.02,0.18 -0.02,0.17 -0.02,0.18 -0.02,0.18 -0.01,0.18 -0.02,0.18 -0.02,0.18 -0.01,0.18 -0.01,0.18 -0.01,0.18 -0.01,0.18 -0.01,0.18 -0.01,0.18 -0.01,0.18 -0.01,0.18 -0.01,0.18 -0.01,0.18 v 0.18 l -0.01,0.18 -0.01,0.18 v 0.18 l -0.01,0.18 v 126.8 l 0.01,0.18 v 0.54 l 0.01,0.17 0.01,0.18 0.01,0.18 0.01,0.18 0.01,0.18 0.01,0.18 0.01,0.18 0.01,0.18 0.01,0.18 0.02,0.18 0.01,0.18 0.01,0.18 0.01,0.18 0.02,0.17 0.02,0.18 0.02,0.17 0.01,0.18 0.02,0.17 0.02,0.17 0.02,0.17 0.02,0.17 0.02,0.18 0.02,0.17 0.02,0.17 0.02,0.18 0.02,0.18 0.02,0.17 0.02,0.18 0.03,0.17 0.03,0.17 0.03,0.17 0.03,0.17 0.03,0.18 0.03,0.17 0.03,0.17 0.03,0.17 0.03,0.17 0.04,0.17 0.03,0.17 0.03,0.17 0.03,0.17 0.04,0.17 0.04,0.17 0.03,0.17 0.04,0.17 0.04,0.17 0.04,0.17 0.04,0.17 0.04,0.17 0.04,0.17 0.04,0.17 0.04,0.16 0.05,0.16 0.04,0.17 0.04,0.17 0.04,0.17 0.05,0.17 0.04,0.16 0.04,0.17 0.04,0.16 0.05,0.17 0.04,0.16 0.05,0.17 0.05,0.17 0.05,0.16 0.05,0.17 0.05,0.17 0.05,0.16 0.05,0.17 0.06,0.16 0.06,0.16 0.06,0.16 0.06,0.16 0.05,0.16 0.06,0.17 0.06,0.16 0.06,0.16 0.06,0.16 0.06,0.16 0.06,0.16 0.06,0.16 0.06,0.16 0.06,0.16 0.06,0.16 0.07,0.16 0.07,0.16 0.06,0.16 0.06,0.16 0.06,0.16 0.06,0.16 0.06,0.16 0.07,0.16 0.07,0.16 0.07,0.16 0.07,0.16 0.07,0.16 0.07,0.16 0.07,0.16 0.07,0.16 0.07,0.16 0.07,0.16 0.07,0.16 0.07,0.15 0.08,0.16 0.08,0.15 0.08,0.16 0.08,0.15 0.08,0.15 0.08,0.15 0.08,0.15 0.08,0.15 0.08,0.15 0.09,0.15 0.08,0.15 0.08,0.15 0.08,0.15 0.09,0.15 0.09,0.15 0.08,0.15 0.08,0.15 0.08,0.15 0.09,0.15 0.08,0.15 0.09,0.14 0.09,0.15 0.09,0.14 0.09,0.15 0.09,0.15 0.09,0.14 0.09,0.14 0.09,0.14 0.09,0.14 0.09,0.15 0.09,0.15 0.1,0.14 0.09,0.14 0.09,0.15 0.09,0.14 0.09,0.14 0.1,0.14 0.1,0.14 0.1,0.15 0.1,0.14 0.1,0.14 0.1,0.14 0.1,0.14 0.1,0.14 0.1,0.14 0.1,0.14 0.11,0.14 0.11,0.14 0.1,0.14 0.1,0.14 0.1,0.14 0.1,0.14 0.11,0.13 0.11,0.13 0.11,0.14 0.11,0.13 0.11,0.14 0.11,0.13 0.11,0.13 0.11,0.13 0.11,0.13 0.11,0.13 0.11,0.13 0.11,0.13 0.11,0.13 0.11,0.13 0.11,0.13 0.11,0.13 0.12,0.13 0.12,0.13 0.11,0.13 0.12,0.12 0.12,0.13 0.12,0.12 0.12,0.13 0.11,0.13 0.12,0.13 0.12,0.12 0.12,0.12 0.12,0.12 0.12,0.12 0.12,0.13 0.12,0.12 0.12,0.12 0.12,0.12 0.12,0.12 0.12,0.12 0.13,0.12 0.12,0.12 0.12,0.12 0.13,0.12 0.12,0.12 0.12,0.12 0.13,0.12 0.13,0.11 0.13,0.11 0.13,0.12 0.13,0.12 0.13,0.11 0.13,0.11 0.13,0.12 0.13,0.12 0.13,0.11 0.14,0.11 0.14,0.11 0.14,0.11 0.13,0.11 0.13,0.11 0.14,0.11 0.13,0.11 0.14,0.1 0.13,0.11 0.14,0.11 0.14,0.11 0.14,0.11 0.13,0.1 0.14,0.11 0.14,0.1 0.14,0.11 0.14,0.11 0.14,0.1 0.14,0.1 0.15,0.1 0.14,0.1 0.14,0.1 0.14,0.1 0.14,0.1 0.14,0.1 0.14,0.1 0.15,0.1 0.15,0.09 0.15,0.1 0.14,0.1 0.15,0.1 0.15,0.1 0.14,0.09 0.15,0.09 0.15,0.09 0.15,0.09 0.15,0.09 0.15,0.09 0.16,0.09 0.15,0.09 0.15,0.09 0.17,0.1 104.68,61.2 0.13,0.08 0.11,0.06 0.12,0.06 0.12,0.06 0.12,0.06 0.11,0.07 0.12,0.06 0.12,0.06 0.12,0.06 0.12,0.07 0.12,0.06 0.12,0.06 0.12,0.06 0.12,0.06 0.12,0.06 0.12,0.06 0.12,0.06 0.12,0.06 0.11,0.06 0.12,0.06 0.12,0.06 0.12,0.05 0.12,0.06 0.12,0.05 0.12,0.05 0.12,0.05 0.12,0.06 0.12,0.06 0.12,0.05 0.12,0.06 0.12,0.05 0.12,0.05 0.12,0.05 0.12,0.05 0.12,0.05 0.12,0.05 0.12,0.05 0.12,0.05 0.12,0.05 0.12,0.04 0.13,0.05 0.12,0.05 0.12,0.05 0.12,0.05 0.12,0.05 0.12,0.04 0.12,0.05 0.12,0.04 0.12,0.04 0.13,0.04 0.12,0.04 0.11,0.04 0.26,0.08 0.25,0.08 0.25,0.07 0.25,0.07 0.25,0.07 0.25,0.07 0.25,0.07 0.25,0.07 0.25,0.07 0.25,0.06 0.25,0.06 0.25,0.06 0.25,0.05 0.25,0.06 0.25,0.05 0.25,0.05 0.25,0.05 0.25,0.04 0.25,0.05 0.25,0.04 0.25,0.04 0.26,0.04 0.25,0.04 0.26,0.03 0.26,0.03 0.26,0.03 0.26,0.02 0.25,0.02 0.26,0.02 0.25,0.02 0.26,0.02 0.26,0.02 0.25,0.02 0.25,0.01 0.25,0.01 0.26,0.01 h 1.28 l 0.26,-0.01 h 0.26 l 0.26,-0.01 0.26,-0.01 0.26,-0.02 0.26,-0.02 0.26,-0.01 0.26,-0.02 0.26,-0.02 0.26,-0.02 0.25,-0.02 0.26,-0.03 0.26,-0.03 0.25,-0.03 0.26,-0.03 0.25,-0.04 0.26,-0.04 0.25,-0.04 0.26,-0.04 0.25,-0.04 0.25,-0.05 0.25,-0.04 0.26,-0.05 0.25,-0.05 0.25,-0.06 0.25,-0.05 0.25,-0.06 0.25,-0.06 0.25,-0.06 0.25,-0.06 0.25,-0.07 0.25,-0.07 0.25,-0.07 0.25,-0.07 0.26,-0.08 0.12,-0.04 0.12,-0.04 0.12,-0.04 0.13,-0.04 0.12,-0.04 0.13,-0.04 0.12,-0.04 0.12,-0.04 0.13,-0.04 0.12,-0.04 0.12,-0.04 0.13,-0.05 0.12,-0.04 0.13,-0.04 0.12,-0.05 0.12,-0.04 0.12,-0.04 0.12,-0.04 0.13,-0.05 0.12,-0.04 0.12,-0.05 0.12,-0.05 0.12,-0.05 0.12,-0.05 0.12,-0.05 0.12,-0.05 0.12,-0.05 0.12,-0.05 0.12,-0.05 0.12,-0.05 0.12,-0.06 0.12,-0.06 0.12,-0.05 0.12,-0.06 0.12,-0.06 0.12,-0.05 0.12,-0.06 0.12,-0.06 0.12,-0.06 0.11,-0.06 0.12,-0.06 0.12,-0.06 0.12,-0.06 0.12,-0.06 0.12,-0.06 0.12,-0.06 0.12,-0.06 0.12,-0.06 0.11,-0.06 0.12,-0.06 0.12,-0.06 0.13,-0.07 115.97,-64.63 0.14,-0.07 0.13,-0.07 0.12,-0.07 0.12,-0.07 0.12,-0.07 0.12,-0.08 0.13,-0.07 0.12,-0.07 0.12,-0.07 0.12,-0.07 0.12,-0.08 0.12,-0.08 0.12,-0.07 0.12,-0.07 0.12,-0.07 0.12,-0.08 0.12,-0.08 0.12,-0.07 0.12,-0.08 0.12,-0.07 0.11,-0.08 0.11,-0.08 0.11,-0.08 0.11,-0.08 0.11,-0.08 0.12,-0.08 0.11,-0.08 0.12,-0.08 0.11,-0.08 0.11,-0.08 0.11,-0.08 0.11,-0.08 0.11,-0.08 0.12,-0.08 0.11,-0.09 0.11,-0.08 0.11,-0.09 0.11,-0.08 0.11,-0.09 0.11,-0.09 0.11,-0.09 0.11,-0.08 0.11,-0.08 0.11,-0.09 0.1,-0.09 0.11,-0.09 0.11,-0.09 0.1,-0.08 0.11,-0.09 0.11,-0.1 0.1,-0.09 0.11,-0.09 0.1,-0.09 0.1,-0.09 0.1,-0.1 0.11,-0.09 0.1,-0.1 0.1,-0.09 0.1,-0.1 0.1,-0.1 0.1,-0.09 0.1,-0.1 0.1,-0.09 0.1,-0.1 0.1,-0.1 0.1,-0.1 0.1,-0.1 0.09,-0.1 0.1,-0.1 0.09,-0.1 0.1,-0.1 0.1,-0.1 0.1,-0.1 0.09,-0.1 0.09,-0.1 0.09,-0.1 0.09,-0.1 0.1,-0.1 0.09,-0.1 0.09,-0.1 0.09,-0.1 0.09,-0.1 0.09,-0.1 0.09,-0.1 0.09,-0.1 0.09,-0.11 0.09,-0.11 0.09,-0.11 0.09,-0.1 0.09,-0.1 0.09,-0.1 0.09,-0.11 0.09,-0.1 0.09,-0.11 0.08,-0.1 0.08,-0.11 0.08,-0.11 0.08,-0.1 0.09,-0.11 0.08,-0.11 0.08,-0.11 0.08,-0.11 0.08,-0.11 0.08,-0.11 0.08,-0.11 0.08,-0.11 0.08,-0.11 0.08,-0.11 0.08,-0.11 0.08,-0.11 0.08,-0.11 0.07,-0.11 0.07,-0.12 0.08,-0.12 0.08,-0.11 0.07,-0.11 0.07,-0.11 0.08,-0.12 0.08,-0.11 0.07,-0.11 0.07,-0.12 0.07,-0.12 0.07,-0.12 0.07,-0.12 0.07,-0.11 0.07,-0.12 0.07,-0.12 0.07,-0.11 0.07,-0.12 0.07,-0.12 0.07,-0.12 0.06,-0.12 0.06,-0.12 0.07,-0.12 0.07,-0.12 0.06,-0.12 0.07,-0.12 0.07,-0.12 0.06,-0.12 0.06,-0.12 0.06,-0.13 0.06,-0.12 0.07,-0.12 0.07,-0.12 0.06,-0.12 0.06,-0.12 0.06,-0.12 0.06,-0.13 0.06,-0.12 0.06,-0.12 0.06,-0.13 0.06,-0.12 0.06,-0.12 0.06,-0.13 0.06,-0.13 0.06,-0.13 0.06,-0.12 0.05,-0.12 0.05,-0.13 0.05,-0.13 0.05,-0.13 0.05,-0.12 0.05,-0.13 0.05,-0.13 0.05,-0.13 0.05,-0.12 0.05,-0.13 0.05,-0.13 0.05,-0.13 0.05,-0.13 0.05,-0.13 0.04,-0.13 0.04,-0.13 0.04,-0.13 0.04,-0.13 0.05,-0.13 0.05,-0.13 0.05,-0.13 0.05,-0.13 0.04,-0.13 0.05,-0.13 0.04,-0.13 0.04,-0.13 0.05,-0.13 0.04,-0.13 0.04,-0.13 0.04,-0.13 0.04,-0.13 0.03,-0.13 0.04,-0.13 0.04,-0.13 0.04,-0.13 0.04,-0.13 0.03,-0.13 0.03,-0.14 0.04,-0.13 0.03,-0.13 0.03,-0.14 0.04,-0.13 0.03,-0.13 0.03,-0.13 0.03,-0.13 0.03,-0.14 0.03,-0.13 0.03,-0.13 0.02,-0.14 0.03,-0.14 0.03,-0.13 0.02,-0.14 0.03,-0.13 0.03,-0.14 0.03,-0.14 0.03,-0.13 0.03,-0.14 0.02,-0.14 0.03,-0.14 0.02,-0.13 0.03,-0.13 0.02,-0.14 0.02,-0.14 0.02,-0.14 0.02,-0.14 0.02,-0.14 0.02,-0.14 0.02,-0.14 0.01,-0.14 0.02,-0.13 0.01,-0.14 0.02,-0.14 0.02,-0.13 0.02,-0.14 0.01,-0.14 0.01,-0.14 0.01,-0.14 0.01,-0.14 0.02,-0.14 0.01,-0.14 0.01,-0.14 0.01,-0.14 0.01,-0.14 0.01,-0.14 0.01,-0.14 0.01,-0.14 0.01,-0.14 0.01,-0.14 0.01,-0.14 0.01,-0.14 v -0.28 l 0.01,-0.14 V 138.8 l -0.01,-0.123 -0.01,-0.13 v -0.13 l -0.01,-0.13 v -0.13 l -0.01,-0.13 v -0.13 l -0.01,-0.13 -0.01,-0.12 -0.01,-0.13 -0.01,-0.13 -0.01,-0.13 -0.01,-0.12 -0.01,-0.13 -0.01,-0.12 -0.01,-0.13 -0.02,-0.13 -0.01,-0.12 -0.01,-0.12 -0.02,-0.12 -0.01,-0.12 -0.02,-0.13 -0.01,-0.12 -0.02,-0.12 -0.02,-0.13 -0.01,-0.13 -0.01,-0.12 -0.02,-0.11 -0.04,-0.263 -0.03,-0.255 -0.04,-0.26 -0.04,-0.25 -0.05,-0.25 -0.05,-0.25 -0.04,-0.25 -0.05,-0.25 -0.06,-0.25 -0.06,-0.25 -0.06,-0.25 -0.06,-0.25 -0.06,-0.25 -0.06,-0.25 -0.06,-0.25 -0.07,-0.25 -0.07,-0.25 -0.07,-0.25 -0.08,-0.25 -0.07,-0.24 -0.08,-0.24 -0.08,-0.24 -0.08,-0.24 -0.08,-0.24 -0.09,-0.24 -0.09,-0.24 -0.09,-0.23 -0.09,-0.24 -0.09,-0.24 -0.09,-0.24 -0.1,-0.23 -0.09,-0.24 -0.1,-0.23 -0.1,-0.23 -0.1,-0.23 -0.11,-0.23 -0.1,-0.23 -0.11,-0.23 -0.11,-0.23 -0.11,-0.22 -0.12,-0.23 -0.11,-0.23 -0.12,-0.23 -0.12,-0.22 -0.12,-0.22 -0.12,-0.22 -0.12,-0.22 -0.12,-0.22 -0.13,-0.22 -0.13,-0.22 -0.13,-0.22 -0.14,-0.22 -0.13,-0.21 -0.13,-0.21 -0.14,-0.21 -0.14,-0.21 -0.14,-0.21 -0.14,-0.21 -0.14,-0.21 -0.14,-0.21 -0.15,-0.2 -0.15,-0.2 -0.15,-0.2 -0.15,-0.2 -0.15,-0.2 -0.16,-0.2 -0.16,-0.2 -0.16,-0.2 -0.16,-0.2 -0.16,-0.19 -0.17,-0.19 -0.16,-0.19 -0.17,-0.19 -0.17,-0.19 -0.17,-0.19 -0.17,-0.19 -0.17,-0.19 -0.18,-0.18 -0.18,-0.18 -0.18,-0.18 -0.18,-0.18 -0.18,-0.18 -0.19,-0.18 -0.19,-0.18 -0.19,-0.17 -0.19,-0.17 -0.19,-0.17 -0.19,-0.17 -0.19,-0.17 -0.2,-0.17 -0.2,-0.16 -0.2,-0.16 -0.19,-0.16 -0.21,-0.17 -0.09,-0.07 -0.1,-0.08 -0.1,-0.08 -0.1,-0.08 -0.1,-0.08 -0.1,-0.07 -0.1,-0.08 -0.1,-0.08 -0.11,-0.08 -0.11,-0.08 -0.1,-0.08 -0.1,-0.08 -0.1,-0.08 -0.1,-0.07 -0.1,-0.08 -0.11,-0.08 -0.1,-0.07 -0.1,-0.07 -0.11,-0.08 -0.11,-0.07 -0.11,-0.07 -0.1,-0.07 -0.11,-0.07 -0.11,-0.07 -0.11,-0.07 -0.11,-0.07 -0.11,-0.07 -0.11,-0.07 -0.11,-0.07 -0.11,-0.07 -0.11,-0.07 -0.11,-0.06 -0.11,-0.06 -0.13,-0.07 L 193,46.09 l -0.16,-0.098 -0.145,-0.08 -0.15,-0.09 -0.15,-0.09 -0.147,-0.083 -0.15,-0.08 -0.145,-0.08 -0.15,-0.08 -0.15,-0.08 -0.15,-0.08 -0.147,-0.08 -0.15,-0.08 -0.15,-0.08 -0.15,-0.08 -0.15,-0.08 -0.15,-0.08 -0.15,-0.08 -0.153,-0.07 -0.15,-0.08 -0.15,-0.07 -0.15,-0.07 -0.15,-0.08 -0.155,-0.07 -0.15,-0.07 -0.15,-0.07 -0.156,-0.07 -0.15,-0.07 -0.15,-0.06 -0.155,-0.07 -0.152,-0.07 -0.15,-0.07 -0.155,-0.06 -0.15,-0.06 -0.16,-0.06 -0.154,-0.07 -0.158,-0.06 -0.16,-0.07 -0.16,-0.06 -0.155,-0.06 -0.155,-0.06 -0.157,-0.06 -0.16,-0.06 -0.16,-0.06 -0.15,-0.06 -0.15,-0.05 -0.15,-0.05 -0.16,-0.06 -0.16,-0.05 -0.15,-0.05 -0.16,-0.05 -0.16,-0.05 -0.15,-0.05 -0.16,-0.05 -0.16,-0.05 -0.16,-0.05 -0.15,-0.05 -0.16,-0.05 -0.16,-0.05 -0.16,-0.05 -0.16,-0.04 -0.16,-0.05 -0.16,-0.04 -0.16,-0.05 -0.16,-0.04 -0.16,-0.04 -0.16,-0.04 -0.16,-0.05 -0.16,-0.04 -0.16,-0.04 -0.16,-0.03 -0.16,-0.04 -0.16,-0.04 -0.16,-0.04 -0.16,-0.03 -0.16,-0.04 -0.16,-0.03 -0.16,-0.03 -0.16,-0.04 -0.16,-0.03 -0.16,-0.03 -0.16,-0.03 -0.16,-0.03 -0.16,-0.03 -0.16,-0.03 -0.17,-0.03 -0.16,-0.02 -0.16,-0.02 -0.16,-0.02 -0.16,-0.02 -0.16,-0.03 -0.16,-0.03 -0.16,-0.02 -0.17,-0.03 -0.16,-0.02 -0.16,-0.03 -0.16,-0.02 -0.16,-0.02 -0.16,-0.02 -0.16,-0.02 -0.16,-0.02 -0.17,-0.02 -0.16,-0.01 -0.16,-0.02 -0.16,-0.02 -0.16,-0.01 -0.16,-0.01 -0.16,-0.01 -0.16,-0.01 -0.16,-0.01 -0.17,-0.01 -0.17,-0.01 -0.16,-0.01 -0.16,-0.01 h -0.16 l -0.16,-0.01 -0.16,-0.01 h -0.17 l -0.16,-0.01 -0.16,-0.01 -0.15,-0.01 -0.16,-0.01 h -0.33 l -0.16,-0.01 h -0.32 z"
       id="path4" />
    <path
       fill="#ffffff"
       fill-rule="nonzero"
       d="m 96.91,309.916 v -207.22 h 43.354 v 75.48 h 71.916 v -75.48 h 43.48 v 207.22 H 212.18 V 219.31 h -71.916 v 90.606 z"
       id="path6" />
  </g>
</svg>
