<?xml version="1.0" encoding="UTF-8" standalone="no"?>
<svg
        viewBox="0 0 500 500"
        version="1.1"
>
    <defs
            id="defs1"/>
    <path
            id="path13"
            style="stroke-width:10.1412"
            fill="#333645"
            d="m 298.72347,191.87778 40.71499,-51.5179 c 5.77441,-7.30229 4.87184,-18.16931 -2.00392,-24.30241 -6.87574,-6.13309 -17.10924,-5.17479 -22.88365,2.12742 l -185.92102,235.28083 -8.66259,10.98193 v 23.53571 h 10.32295 13.48113 219.93907 c 8.96991,0 16.24319,-7.72354 16.24319,-17.24919 0,-9.52565 -7.27328,-17.2502 -16.24319,-17.2502 H 171.04049 Z m -46.48935,-30.52243 c 5.75817,-7.30219 4.87286,-18.16932 -2.00391,-24.30241 -6.87573,-6.13311 -17.10723,-5.17476 -22.88264,2.12742 L 119.96728,275.08525 v 53.6653 z M 363.78954,296.02383 H 244.80568 l -27.25148,34.49941 h 146.23534 c 8.9689,0 16.24318,-7.72355 16.24318,-17.25021 0,-9.52463 -7.27428,-17.2492 -16.24318,-17.2492 z"/>
</svg>
