<?xml version="1.0" encoding="UTF-8" standalone="no"?>
<svg
   id="Layer_1"
   data-name="Layer 1"
   viewBox="0 0 309.88 309.88"
   version="1.1"
   sodipodi:docname="mariadb.svg"
   inkscape:version="1.2.2 (1:1.2.2+202212051552+b0a8486541)"
   xmlns:inkscape="http://www.inkscape.org/namespaces/inkscape"
   xmlns:sodipodi="http://sodipodi.sourceforge.net/DTD/sodipodi-0.dtd"
   xmlns="http://www.w3.org/2000/svg"
   xmlns:svg="http://www.w3.org/2000/svg"
   xmlns:rdf="http://www.w3.org/1999/02/22-rdf-syntax-ns#"
   xmlns:cc="http://creativecommons.org/ns#"
   xmlns:dc="http://purl.org/dc/elements/1.1/">
  <sodipodi:namedview
     id="namedview25"
     pagecolor="#ffffff"
     bordercolor="#000000"
     borderopacity="0.25"
     inkscape:showpageshadow="2"
     inkscape:pageopacity="0.0"
     inkscape:pagecheckerboard="0"
     inkscape:deskcolor="#d1d1d1"
     showgrid="false"
     inkscape:zoom="3.3515353"
     inkscape:cx="119.1991"
     inkscape:cy="126.50919"
     inkscape:window-width="1920"
     inkscape:window-height="1019"
     inkscape:window-x="0"
     inkscape:window-y="30"
     inkscape:window-maximized="1"
     inkscape:current-layer="Layer_1" />
  <defs
     id="defs4">
    <style
       id="style2">.cls-1{fill:#fff;}</style>
  </defs>
  <title
     id="title6">MDB-VLogo_White</title>
  <g
     id="g278"
     transform="translate(0.0078812,28.570556)">
    <path
       class="cls-1"
       d="m 56.17,208.5 11.28,43.56 H 58.94 L 51.4,220.69 37.28,252.06 H 30.1 L 16.05,220.9 8.33,252.09 H 0 L 11.16,208.5 h 7.39 l 15.21,33.73 15.11,-33.73 z"
       id="path8" />
    <path
       class="cls-1"
       d="m 99.55,225.34 v -5.07 h 8.2 v 31.79 h -8.2 v -5.16 c -2.18,3.69 -6.64,5.8 -12.07,5.8 -11.34,0 -17.68,-8 -17.68,-17.2 0,-8.87 6,-16 16.47,-16 5.96,0.05 10.91,2.1 13.28,5.84 z m -21,10.62 c 0,5.85 3.68,10.85 10.8,10.85 6.88,0 10.62,-4.88 10.62,-10.67 0,-5.79 -3.86,-10.74 -11,-10.74 -6.87,0 -10.42,4.94 -10.42,10.56 z"
       id="path10" />
    <path
       class="cls-1"
       d="m 126.25,252.06 h -8.2 v -31.79 h 8.2 v 7.12 a 12.6,12.6 0 0 1 11.47,-7.84 14.75,14.75 0 0 1 5.12,0.84 l -1.75,6 a 17.94,17.94 0 0 0 -4.34,-0.6 c -5.91,0 -10.5,4.46 -10.5,11 z"
       id="path12" />
    <path
       class="cls-1"
       d="m 146.94,211.9 a 4.18,4.18 0 0 1 4.41,-4.28 4.32,4.32 0 0 1 4.46,4.4 4.15,4.15 0 0 1 -4.46,4.23 4.23,4.23 0 0 1 -4.41,-4.35 z m 0.36,8.39 h 8.25 v 23.21 c 0,1.44 0.3,2.47 1.51,2.47 a 9,9 0 0 0 1.57,-0.18 l 1.26,6 a 14.56,14.56 0 0 1 -5.43,1 c -3.44,0 -7.12,-1 -7.12,-8.81 z"
       id="path14" />
    <path
       class="cls-1"
       d="m 192.19,225.34 v -5.07 h 8.2 v 31.79 h -8.2 v -5.16 c -2.18,3.69 -6.64,5.8 -12.07,5.8 -11.34,0 -17.68,-8 -17.68,-17.2 0,-8.87 6,-16 16.47,-16 5.98,0.05 10.92,2.1 13.28,5.84 z m -21,10.62 c 0,5.85 3.68,10.85 10.8,10.85 6.88,0 10.62,-4.88 10.62,-10.67 0,-5.79 -3.86,-10.74 -11,-10.74 -6.86,0 -10.42,4.94 -10.42,10.56 z"
       id="path16" />
    <path
       class="cls-1"
       d="m 212.99,208.5 h 19.67 c 16.53,0 24.8,9.12 24.68,21.78 0.12,13.16 -9,21.78 -23.23,21.78 h -21.12 z m 5.43,3.87 v 35.89 h 15 c 13.15,0 18.16,-8.87 18.16,-18.1 0,-10.43 -6.28,-17.79 -18.16,-17.79 z"
       id="path18" />
    <path
       class="cls-1"
       d="m 290.87,252.06 h -25 V 208.5 h 22.5 c 8.63,0 16.83,1.63 16.71,11.29 0,6.81 -4.22,8.68 -8.69,9.41 6.34,0.54 10.14,4.58 10.14,11.1 0.09,9.77 -8.48,11.76 -15.66,11.76 z M 289,227.51 c 8.63,0 10.56,-3.32 10.56,-7.54 0,-6.34 -3.86,-7.79 -10.56,-7.79 h -17.91 v 15.33 z m 0.24,3.68 h -18.15 v 17.19 h 18.94 c 5.31,0 10.92,-1.75 10.92,-8.44 0,-7.73 -6.46,-8.75 -11.71,-8.75 z"
       id="path20" />
    <path
       class="cls-1"
       d="m 308.55,0.95 a 4.2,4.2 0 0 0 -2.84,-1 c -2.84,0 -6.5,1.92 -8.46,3 l -0.79,0.4 a 26.81,26.81 0 0 1 -10.57,2.66 c -3.76,0.12 -7,0.34 -11.22,0.77 -25,2.58 -36.15,21.74 -46.89,40.27 -5.84,10.08 -11.88,20.5 -20.16,28.57 a 55.71,55.71 0 0 1 -5.46,4.63 c -8.57,6.39 -19.33,10.9 -27.74,14.12 -8.07,3.08 -16.86,5.85 -25.37,8.53 -7.78,2.45 -15.14,4.76 -21.9,7.28 -3.05,1.13 -5.64,2 -7.93,2.76 -6.15,2 -10.6,3.53 -17.08,8 -2.53,1.73 -5.07,3.6 -6.8,5 A 71.26,71.26 0 0 0 81.8,140.21 84.81,84.81 0 0 1 70.43,153.9 c -1.36,1.34 -3.8,2 -7.43,2 -4.27,0 -9.43,-0.88 -14.91,-1.81 -5.48,-0.93 -11.46,-2 -16.46,-2 -4.07,0 -7.17,0.66 -9.5,2 0,0 -3.9,2.28 -5.56,5.23 l 1.62,0.73 a 33.56,33.56 0 0 1 6.93,5 33.68,33.68 0 0 0 7.19,5.12 6.37,6.37 0 0 1 2.24,1.45 c -0.69,1 -1.69,2.29 -2.74,3.67 -5.77,7.55 -9.13,12.32 -7.2,14.92 a 6,6 0 0 0 3,0.68 c 12.59,0 19.34,-3.27 27.9,-7.41 2.47,-1.2 5,-2.44 8,-3.7 5,-2.17 10.38,-5.63 16.08,-9.29 7.55,-4.85 15.36,-9.87 22.92,-12.3 a 62.3,62.3 0 0 1 19.23,-2.7 c 8,0 16.42,1.07 24.54,2.11 6.06,0.78 12.32,1.58 18.47,2 2.39,0.14 4.6,0.21 6.76,0.21 a 78.48,78.48 0 0 0 8.61,-0.45 l 0.68,-0.24 c 4.32,-2.65 6.34,-8.34 8.29,-13.84 1.26,-3.54 2.32,-6.72 4,-8.74 a 2.06,2.06 0 0 1 0.33,-0.27 0.4,0.4 0 0 1 0.49,0.08 0.25,0.25 0 0 1 0,0.16 c -1,21.51 -9.67,35.16 -18.42,47.3 l -5.94,6.23 c 0,0 8.18,0 12.84,-1.8 17,-5.08 29.84,-16.28 39.18,-34.14 a 144.39,144.39 0 0 0 6.16,-14.09 c 0.16,-0.4 1.64,-1.14 1.49,0.93 0,0.61 -0.08,1.29 -0.13,2 v 0 c 0,0.42 -0.06,0.85 -0.08,1.28 -0.25,3 -1,9.34 -1,9.34 l 5.25,-2.81 c 12.66,-8 22.42,-24.14 29.82,-49.25 3.09,-10.46 5.34,-20.85 7.33,-30 2.38,-11 4.43,-20.43 6.78,-24.09 3.69,-5.74 9.32,-9.62 14.77,-13.39 0.75,-0.51 1.49,-1 2.22,-1.54 6.86,-4.81 13.67,-10.36 15.16,-20.71 v -0.23 c 1.14,-7.72 0.21,-9.64 -0.79,-10.59 z"
       id="path22" />
  </g>
  <metadata
     id="metadata254">
    <rdf:RDF>
      <cc:Work
         rdf:about="">
        <dc:title>MDB-VLogo_White</dc:title>
      </cc:Work>
    </rdf:RDF>
  </metadata>
</svg>
