<?xml version="1.0" encoding="UTF-8" standalone="no"?>
<!-- Created with Inkscape (http://www.inkscape.org/) -->

<svg
   viewBox="0 0 52.365002 52.365004"
   version="1.1"
   id="svg5"
   xml:space="preserve"
   xmlns="http://www.w3.org/2000/svg"
   xmlns:svg="http://www.w3.org/2000/svg"><defs
     id="defs2" /><g
     id="layer1"
     transform="translate(-21.587828,-109.37507)"><g
       id="g2632"
       transform="translate(-4.7637985e-5,17.056276)"><path
         id="path366"
         style="fill:#d52216;fill-opacity:1;stroke-width:0.264583"
         d="m 67.064124,109.92042 c -0.499949,0 -0.74618,0.24592 -1.127063,1.12448 -0.268121,0.61847 -0.816603,1.83886 -1.218531,2.71198 -2.813823,6.11256 -3.267681,6.96456 -3.801318,7.13393 -0.568863,0.18055 -0.70056,0.4415 -0.382922,0.75913 0.09701,0.097 1.049513,0.17673 2.116666,0.17673 1.469905,0 1.939933,-0.0882 1.939933,-0.3638 0,-0.20009 -0.357187,-0.43567 -0.79375,-0.52297 -0.942476,-0.1885 -0.993831,-0.59391 -0.258898,-2.0345 l 0.534334,-1.04748 h 2.462899 2.462898 l 0.627869,1.33997 c 0.664238,1.41818 0.531499,1.8209 -0.603581,1.8309 -0.25466,0.002 -0.463021,0.18273 -0.463021,0.40101 0,0.55765 5.161363,0.58892 5.374866,0.0326 0.07984,-0.20807 -0.106243,-0.47604 -0.434599,-0.6258 -0.517471,-0.23601 -2.315526,-3.56579 -5.094262,-9.43456 -0.566954,-1.19743 -0.824417,-1.48157 -1.34152,-1.48157 z m -0.658875,3.175 c 0.184139,0 1.903192,3.41916 1.895492,3.7698 v 5.1e-4 c -0.01185,0.28277 -3.709852,0.24649 -3.709852,-0.0367 0,-0.39111 1.624316,-3.73362 1.81436,-3.73362 z" /><path
         style="fill:#fbfbfb;fill-opacity:1;stroke-width:0.264583"
         d="m 48.780874,121.49569 c 0.05991,-0.1819 0.373899,-0.36961 0.697765,-0.41714 0.925674,-0.13585 1.108125,-1.12268 1.029896,-5.57042 l -0.07269,-4.13275 -0.854171,-0.39687 c -1.685961,-0.78336 -1.085929,-1.05834 2.309379,-1.05834 2.447052,0 3.175,0.0798 3.175,0.34787 0,0.19133 -0.416719,0.54659 -0.926042,0.78947 l -0.926041,0.4416 v 4.09032 c 0,3.92688 0.02349,4.10678 0.588039,4.5022 1.427618,0.99994 4.369991,0.15803 4.802188,-1.37406 0.306432,-1.08627 1.098767,-1.20816 0.859956,-0.13229 -0.08883,0.40018 -0.238358,1.29315 -0.332282,1.98437 l -0.170775,1.25677 h -5.144569 c -3.997357,0 -5.120283,-0.0738 -5.035654,-0.33073 z"
         id="path362" /><path
         id="path360"
         style="fill:#fbfbfb;fill-opacity:1;stroke-width:0.264583"
         d="m 42.471309,109.39229 c -0.995843,-0.006 -2.067447,0.24352 -3.148128,0.76429 -4.399894,2.1203 -5.785409,4.63789 -4.2354,7.69669 0.699893,1.38118 1.769409,2.37535 3.620967,3.36569 1.359853,0.72734 2.081513,0.75475 3.957898,0.14986 2.053891,-0.66212 3.480391,-2.17746 4.179073,-4.43952 0.680268,-2.20245 0.693312,-3.56962 0.04651,-4.83692 -0.893395,-1.75045 -2.519762,-2.6894 -4.420919,-2.70009 z m -1.797823,2.11202 c 1.212519,-0.0158 2.418385,0.38011 3.216858,1.12809 1.437293,1.34642 1.285962,5.12373 -0.257348,6.42235 -0.931606,0.78389 -1.830308,0.81489 -3.241146,0.1111 -3.638582,-1.81507 -4.550456,-6.04478 -1.571481,-7.28947 0.581104,-0.24281 1.217988,-0.36382 1.853117,-0.37207 z m -0.316259,11.14453 c -0.546248,0.003 -0.801087,0.22129 -1.506885,1.00253 -1.198782,1.32694 -1.397784,2.37604 -0.240296,1.2671 1.08801,-1.04238 1.943836,-0.91174 5.501473,0.83871 1.732038,0.85221 3.327755,1.61641 3.546037,1.69861 0.218281,0.0822 0.941797,0.15903 1.607654,0.17053 0.931094,0.0161 1.339478,-0.11679 1.768367,-0.57464 0.658646,-0.70311 1.121896,-1.83015 1.121896,-2.72904 0,-0.87467 -0.478001,-0.81666 -0.690914,0.0837 -0.194492,0.82249 -1.091846,1.91823 -1.570964,1.91823 -0.349863,0 -1.921524,-0.6767 -5.543331,-2.3859 -1.309686,-0.61807 -2.861824,-1.17992 -3.449401,-1.24902 -0.214952,-0.0253 -0.390687,-0.0416 -0.543636,-0.0408 z" /><path
         id="path356"
         style="fill:#fbfbfb;fill-opacity:1;stroke-width:0.264583"
         d="m 32.702397,109.37524 c -0.159584,0.008 -0.421871,0.27072 -0.607198,0.67747 -0.364421,0.79982 -0.803651,0.82667 -2.164726,0.1323 -1.436109,-0.73265 -2.557612,-0.66368 -4.433838,0.27388 -1.970816,0.98483 -3.631505,2.54969 -3.846277,3.62355 -0.249051,1.24526 0.256258,2.5861 1.330151,3.52899 l 0.974618,0.85576 -0.701766,1.25677 -0.701766,1.25677 0.726571,0.30076 c 0.399528,0.1655 1.493911,0.40451 2.432409,0.53123 3.359917,0.45367 4.726985,0.004 6.163965,-2.02675 0.593947,-0.83954 0.751307,-1.34787 0.743107,-2.40192 -0.01466,-1.89253 -0.915143,-3.04829 -2.644283,-3.39411 -0.65982,-0.13197 -0.990723,0.0442 -2.279447,1.2113 -1.87079,1.6942 -2.383408,1.68053 -3.290239,-0.0853 -0.606815,-1.18161 -0.628585,-1.34313 -0.272334,-1.98437 0.256605,-0.46189 0.828747,-0.84482 1.691369,-1.13223 1.138251,-0.3793 1.454767,-0.38865 2.495455,-0.0755 0.655582,0.1973 1.520084,0.60082 1.920813,0.8971 0.400731,0.29627 0.822894,0.53843 0.937927,0.53795 0.195941,-8e-4 1.670449,-3.33683 1.666049,-3.76928 -0.0016,-0.15198 -0.05697,-0.21843 -0.14056,-0.21445 z m -3.946013,6.66419 c 0.401478,-0.005 0.763069,0.19022 1.128097,0.57877 0.643873,0.68538 0.797796,2.49865 0.257865,3.03858 -0.17969,0.17969 -1.012295,0.31296 -1.918229,0.30696 -1.570287,-0.0102 -2.691228,-0.34732 -3.690731,-1.11105 -0.475154,-0.36307 -0.455018,-0.39341 0.368453,-0.5581 0.47883,-0.0958 1.386494,-0.64985 2.017448,-1.23145 0.738697,-0.68091 1.320912,-1.01748 1.837097,-1.02371 z" /></g></g></svg>
