<?xml version="1.0" encoding="UTF-8" standalone="no"?>
<svg
   viewBox="0 0 500 500"
   fill="none"
   version="1.1"
   xmlns="http://www.w3.org/2000/svg">
  <path
     d="m 338.78066,182.35731 a 48.250431,48.250431 0 0 1 -48.39777,48.17676 48.250431,48.250431 0 0 1 -48.39776,-48.17676 48.250431,48.250431 0 0 1 48.39776,-48.13994 48.250431,48.250431 0 0 1 48.39777,48.13994 z"
     fill="#ffc131"
     id="path2"
     style="stroke-width:3.68324" />
  <path
     d="m 257.67573,317.67951 a 48.250431,48.250431 0 0 1 -48.39776,48.13993 48.250431,48.250431 0 0 1 -48.43459,-48.13993 48.250431,48.250431 0 0 1 48.43459,-48.17677 48.250431,48.250431 0 0 1 48.39776,48.17677 z"
     fill="#24c8db"
     id="path3"
     style="stroke-width:3.68324" />
  <path
     d="M 172.37192,139.00558 C 88.836057,156.02215 26,229.5396 26,317.64267 26,418.37926 108.06257,499.99984 209.27797,499.99984 A 183.24114,183.24114 0 0 0 384.26866,371.89679 213.18587,213.18587 0 0 1 314.17662,392.33876 128.98703,128.98703 0 0 1 209.27797,446.00356 128.65554,128.65554 0 0 1 80.290943,317.67951 128.43454,128.43454 0 0 1 164.89494,197.12709 a 128.17672,128.17672 0 0 1 7.47698,-58.12151 z"
     fill="#24c8db"
     id="path4"
     style="stroke-width:3.68324" />
  <path
     fill-rule="evenodd"
     clip-rule="evenodd"
     d="M 327.28895,361.03123 C 410.78798,344.0515 473.66087,270.49722 473.66087,182.39414 473.66087,81.62072 391.5983,1.4475502e-4 290.38289,1.4475502e-4 A 183.24114,183.24114 0 0 0 115.39221,128.14003 a 213.14904,213.14904 0 0 1 70.09204,-20.44198 129.02386,129.02386 0 0 1 104.89864,-53.66479 128.65554,128.65554 0 0 1 128.98703,128.32405 128.43454,128.43454 0 0 1 -84.604,120.55241 128.17672,128.17672 0 0 1 -7.47697,58.12151 z"
     fill="#ffc131"
     id="path5"
     style="stroke-width:3.68324" />
</svg>
