<?xml version="1.0" encoding="UTF-8" standalone="no"?>
<svg
   version="1.2"
   viewBox="0 0 1679 1679"
   id="svg13"
   sodipodi:docname="unity.svg"
   inkscape:version="1.2.2 (1:1.2.2+202212051552+b0a8486541)"
   xmlns:inkscape="http://www.inkscape.org/namespaces/inkscape"
   xmlns:sodipodi="http://sodipodi.sourceforge.net/DTD/sodipodi-0.dtd"
   xmlns="http://www.w3.org/2000/svg"
   xmlns:svg="http://www.w3.org/2000/svg"
   xmlns:rdf="http://www.w3.org/1999/02/22-rdf-syntax-ns#"
   xmlns:cc="http://creativecommons.org/ns#"
   xmlns:dc="http://purl.org/dc/elements/1.1/">
  <defs
     id="defs17" />
  <sodipodi:namedview
     id="namedview15"
     pagecolor="#ffffff"
     bordercolor="#000000"
     borderopacity="0.25"
     inkscape:showpageshadow="2"
     inkscape:pageopacity="0.0"
     inkscape:pagecheckerboard="0"
     inkscape:deskcolor="#d1d1d1"
     showgrid="false"
     inkscape:zoom="0.50446694"
     inkscape:cx="506.47521"
     inkscape:cy="939.60567"
     inkscape:window-width="1920"
     inkscape:window-height="1019"
     inkscape:window-x="0"
     inkscape:window-y="30"
     inkscape:window-maximized="1"
     inkscape:current-layer="svg13" />
  <title
     id="title2">uni-svg</title>
  <style
     id="style4">
		tspan { white-space:pre }
		.shp0 { fill: #cccccc } 
		.shp1 { fill: #a6a6a6 } 
		.shp2 { fill: #ffffff } 
	</style>
  <g
     id="g313"
     transform="translate(96.55)">
    <path
       id="Layer"
       class="shp0"
       d="M 1485.9,1175.3 V 391.77 L 807.63,0 v 300.82 l 265.72,153.91 c 10.49,7 10.49,20.99 0,24.48 l -314.66,181.9 c -10.49,6.99 -20.98,3.49 -27.97,0 L 416.05,479.21 c -10.49,-3.49 -10.49,-20.98 0,-24.48 L 681.77,300.82 V 0 L 0,391.77 v 783.53 -3.5 3.5 L 258.72,1024.89 V 717.07 c 0,-10.49 13.99,-17.49 20.98,-13.99 l 314.66,181.89 c 10.49,7 13.99,13.99 13.99,24.49 v 363.78 c 0,10.5 -13.99,17.49 -20.98,13.99 L 321.65,1133.32 62.93,1283.74 741.2,1679 1419.48,1287.23 1160.75,1136.82 895.04,1290.73 c -10.49,7 -20.98,0 -20.98,-13.99 V 912.96 c 0,-10.5 6.99,-20.99 13.99,-24.49 l 314.66,-181.89 c 10.49,-7 20.98,0 20.98,13.99 v 307.82 z" />
    <path
       id="path7"
       class="shp1"
       d="m 741.2,1679 678.28,-391.77 -258.73,-150.41 -265.71,153.91 c -10.49,7 -20.98,0 -20.98,-13.99 V 912.96 c 0,-10.5 6.99,-20.99 13.99,-24.49 l 314.66,-181.89 c 10.49,-7 20.98,0 20.98,13.99 v 307.82 l 258.72,150.41 V 391.77 L 741.2,822.01 Z" />
    <path
       id="path9"
       class="shp2"
       d="m 807.63,0 v 300.82 l 265.72,153.91 c 10.49,7 10.49,20.99 0,24.48 l -314.66,181.9 c -10.49,6.99 -20.98,3.49 -27.97,0 L 416.05,479.21 c -10.49,-3.49 -10.49,-20.98 0,-24.48 L 681.77,300.82 V 0 L 0,391.77 741.2,822.01 1482.41,391.77 Z" />
    <path
       id="path11"
       class="shp0"
       d="M 590.87,1290.73 325.15,1136.82 66.43,1287.23 744.7,1679 V 822.01 L 0,391.77 v 783.53 -3.5 3.5 L 258.72,1024.89 V 717.07 c 0,-10.49 13.99,-17.49 20.98,-13.99 l 314.66,181.89 c 10.49,7 13.99,13.99 13.99,24.49 v 363.78 c 3.49,13.99 -7,24.49 -17.48,17.49 z" />
  </g>
  <metadata
     id="metadata192">
    <rdf:RDF>
      <cc:Work
         rdf:about="">
        <dc:title>uni-svg</dc:title>
      </cc:Work>
    </rdf:RDF>
  </metadata>
</svg>
